<?xml version="1.0" encoding="UTF-8" standalone="no"?>
<!DOCTYPE svg PUBLIC "-//W3C//DTD SVG 1.1//EN" "http://www.w3.org/Graphics/SVG/1.1/DTD/svg11.dtd">
<!-- Gegenereerd door Microsoft Visio, SVG Export structure.svg Pagina-1 -->
<svg xmlns="http://www.w3.org/2000/svg" xmlns:xlink="http://www.w3.org/1999/xlink" xmlns:ev="http://www.w3.org/2001/xml-events"
		xmlns:v="http://schemas.microsoft.com/visio/2003/SVGExtensions/" width="4.83325in" height="4.23857in"
		viewBox="0 0 347.994 305.177" xml:space="preserve" color-interpolation-filters="sRGB" class="st21">
	<v:documentProperties v:langID="1043" v:metric="true" v:viewMarkup="false"/>

	<style type="text/css">
	<![CDATA[
		.st1 {stroke:#000000;stroke-linecap:round;stroke-linejoin:round;stroke-width:1.2}
		.st2 {stroke:#000000;stroke-linecap:round;stroke-linejoin:round;stroke-width:0.75}
		.st3 {stroke:#000000;stroke-linecap:round;stroke-linejoin:round;stroke-width:2}
		.st4 {marker-end:url(#mrkr5-52);stroke:#800000;stroke-linecap:round;stroke-linejoin:round;stroke-width:2}
		.st5 {fill:#800000;fill-opacity:1;stroke:#800000;stroke-opacity:1;stroke-width:0.44247787610619}
		.st6 {marker-start:url(#mrkr5-58);stroke:#800000;stroke-linecap:round;stroke-linejoin:round;stroke-width:2}
		.st7 {stroke:#000000;stroke-linecap:round;stroke-linejoin:round;stroke-width:4.5}
		.st8 {stroke:#000000;stroke-linecap:round;stroke-linejoin:round;stroke-width:6}
		.st9 {marker-start:url(#mrkr4-76);stroke:#000000;stroke-linecap:round;stroke-linejoin:round;stroke-width:0.25}
		.st10 {fill:#000000;fill-opacity:1;stroke:#000000;stroke-opacity:1;stroke-width:0.14792899408284}
		.st11 {stroke:#000000;stroke-linecap:round;stroke-linejoin:round;stroke-width:0.25}
		.st12 {marker-end:url(#mrkr4-131);marker-start:url(#mrkr4-129);stroke:#000000;stroke-linecap:round;stroke-linejoin:round;stroke-width:0.25}
		.st13 {fill:#000000;fill-opacity:1;stroke:#000000;stroke-opacity:1;stroke-width:0.12195121951219}
		.st14 {fill:none;stroke:none;stroke-linecap:round;stroke-linejoin:round;stroke-width:0.75}
		.st15 {fill:#000000;font-family:Times New Roman;font-size:1.00001em}
		.st16 {fill:none;stroke:none;stroke-linecap:round;stroke-linejoin:round;stroke-width:0.24}
		.st17 {marker-end:url(#mrkr5-246);stroke:#000000;stroke-linecap:round;stroke-linejoin:round;stroke-width:0.75}
		.st18 {fill:#000000;fill-opacity:1;stroke:#000000;stroke-opacity:1;stroke-width:0.22935779816514}
		.st19 {fill:#000000;font-family:Times New Roman;font-size:1.00001em;font-style:italic}
		.st20 {font-size:1em}
		.st21 {fill:none;fill-rule:evenodd;font-size:12px;overflow:visible;stroke-linecap:square;stroke-miterlimit:3}
	]]>
	</style>

	<defs id="Markers">
		<g id="lend5">
			<path d="M 2 1 L 0 0 L 1.98117 -0.993387 C 1.67173 -0.364515 1.67301 0.372641 1.98465 1.00043 " style="stroke:none"/>
		</g>
		<marker id="mrkr5-52" class="st5" v:arrowType="5" v:arrowSize="2" v:setback="3.775" refX="-3.775" orient="auto"
				markerUnits="strokeWidth" overflow="visible">
			<use xlink:href="#lend5" transform="scale(-2.26,-2.26) "/>
		</marker>
		<marker id="mrkr5-58" class="st5" v:arrowType="5" v:arrowSize="2" v:setback="3.775" refX="3.775" orient="auto"
				markerUnits="strokeWidth" overflow="visible">
			<use xlink:href="#lend5" transform="scale(2.26) "/>
		</marker>
		<g id="lend4">
			<path d="M 2 1 L 0 0 L 2 -1 L 2 1 " style="stroke:none"/>
		</g>
		<marker id="mrkr4-76" class="st10" v:arrowType="4" v:arrowSize="0" v:setback="12.08" refX="12.08" orient="auto"
				markerUnits="strokeWidth" overflow="visible">
			<use xlink:href="#lend4" transform="scale(6.76) "/>
		</marker>
		<marker id="mrkr4-129" class="st13" v:arrowType="4" v:arrowSize="1" v:setback="14.96" refX="14.96" orient="auto"
				markerUnits="strokeWidth" overflow="visible">
			<use xlink:href="#lend4" transform="scale(8.2) "/>
		</marker>
		<marker id="mrkr4-131" class="st13" v:arrowType="4" v:arrowSize="1" v:setback="16.4" refX="-16.4" orient="auto"
				markerUnits="strokeWidth" overflow="visible">
			<use xlink:href="#lend4" transform="scale(-8.2,-8.2) "/>
		</marker>
		<marker id="mrkr5-246" class="st18" v:arrowType="5" v:arrowSize="2" v:setback="7.63" refX="-7.63" orient="auto"
				markerUnits="strokeWidth" overflow="visible">
			<use xlink:href="#lend5" transform="scale(-4.36,-4.36) "/>
		</marker>
	</defs>
	<g v:mID="0" v:index="1" v:groupContext="foregroundPage">
		<title>Pagina-1</title>
		<v:pageProperties v:drawingScale="0.0393701" v:pageScale="0.0393701" v:drawingUnits="24" v:shadowOffsetX="8.50394"
				v:shadowOffsetY="-8.50394"/>
		<g id="group1-1" transform="translate(-219.762,238.336) rotate(-90)" v:mID="1" v:groupContext="group">
			<title>Inklemming</title>
			<g id="shape2-2" v:mID="2" v:groupContext="shape" transform="translate(316.515,276.83) rotate(90)">
				<title>Blad.2</title>
				<path d="M0 305.18 L28.35 305.18" class="st1"/>
			</g>
			<g id="shape3-5" v:mID="3" v:groupContext="shape" transform="translate(224.296,61.0377) rotate(45)">
				<title>Blad.3</title>
				<path d="M0 305.18 L4.01 305.18" class="st2"/>
			</g>
			<g id="shape4-8" v:mID="4" v:groupContext="shape" transform="translate(221.462,61.0377) rotate(45)">
				<title>Blad.4</title>
				<path d="M0 305.18 L8.02 305.18" class="st2"/>
			</g>
			<g id="shape5-11" v:mID="5" v:groupContext="shape" transform="translate(218.627,61.0377) rotate(45)">
				<title>Blad.5</title>
				<path d="M0 305.18 L12.03 305.18" class="st2"/>
			</g>
			<g id="shape6-14" v:mID="6" v:groupContext="shape" transform="translate(215.793,61.0377) rotate(45)">
				<title>Blad.6</title>
				<path d="M0 305.18 L16.04 305.18" class="st2"/>
			</g>
			<g id="shape7-17" v:mID="7" v:groupContext="shape" transform="translate(215.793,63.8724) rotate(45)">
				<title>Blad.7</title>
				<path d="M0 305.18 L16.04 305.18" class="st2"/>
			</g>
			<g id="shape8-20" v:mID="8" v:groupContext="shape" transform="translate(215.793,66.707) rotate(45)">
				<title>Blad.8</title>
				<path d="M0 305.18 L16.04 305.18" class="st2"/>
			</g>
			<g id="shape9-23" v:mID="9" v:groupContext="shape" transform="translate(215.793,69.5417) rotate(45)">
				<title>Blad.9</title>
				<path d="M0 305.18 L16.04 305.18" class="st2"/>
			</g>
			<g id="shape10-26" v:mID="10" v:groupContext="shape" transform="translate(215.793,72.3763) rotate(45)">
				<title>Blad.10</title>
				<path d="M0 305.18 L16.04 305.18" class="st2"/>
			</g>
			<g id="shape11-29" v:mID="11" v:groupContext="shape" transform="translate(215.793,75.211) rotate(45)">
				<title>Blad.11</title>
				<path d="M0 305.18 L16.04 305.18" class="st2"/>
			</g>
			<g id="shape12-32" v:mID="12" v:groupContext="shape" transform="translate(215.793,78.0456) rotate(45)">
				<title>Blad.12</title>
				<path d="M0 305.18 L16.04 305.18" class="st2"/>
			</g>
			<g id="shape13-35" v:mID="13" v:groupContext="shape" transform="translate(215.793,80.8803) rotate(45)">
				<title>Blad.13</title>
				<path d="M0 305.18 L12.03 305.18" class="st2"/>
			</g>
			<g id="shape14-38" v:mID="14" v:groupContext="shape" transform="translate(215.793,83.7149) rotate(45)">
				<title>Blad.14</title>
				<path d="M0 305.18 L8.02 305.18" class="st2"/>
			</g>
			<g id="shape15-41" v:mID="15" v:groupContext="shape" transform="translate(215.793,86.5495) rotate(45)">
				<title>Blad.15</title>
				<path d="M0 305.18 L4.01 305.18" class="st2"/>
			</g>
		</g>
		<g id="shape16-44" v:mID="16" v:groupContext="shape" transform="translate(-233.936,226.997) rotate(-90)">
			<title>Ligger, 2 pt</title>
			<path d="M0 305.18 L141.73 305.18" class="st3"/>
		</g>
		<g id="shape17-47" v:mID="17" v:groupContext="shape" transform="translate(85.4144,-219.912) scale(-1,1)">
			<title>Moment</title>
			<path d="M-0 305.18 A14.1732 14.1732 0 0 1 14.17 291 A14.1732 14.1732 0 0 1 26.14 297.58 L26.24 297.93" class="st4"/>
		</g>
		<g id="shape18-53" v:mID="18" v:groupContext="shape" transform="translate(71.2411,390.441) rotate(180)">
			<title>Kracht</title>
			<path d="M7.55 305.18 L7.91 305.18 L42.52 305.18" class="st6"/>
		</g>
		<g id="shape19-59" v:mID="19" v:groupContext="shape" transform="translate(-233.936,85.2647) rotate(-90)">
			<title>Kracht.19</title>
			<path d="M7.55 305.18 L7.91 305.18 L42.52 305.18" class="st6"/>
		</g>
		<g id="shape20-64" v:mID="20" v:groupContext="shape" transform="translate(198.8,-78.1797)">
			<title>Blad.20</title>
			<path d="M0 305.18 L0 163.44 L70.87 163.44 L70.87 305.18" class="st7"/>
		</g>
		<g id="shape21-67" v:mID="21" v:groupContext="shape" transform="translate(198.8,-78.1797)">
			<title>Blad.21</title>
			<path d="M0 305.18 L70.87 305.18" class="st8"/>
		</g>
		<g id="group22-70" transform="translate(227.147,-64.0065)" v:mID="22" v:groupContext="group">
			<title>Dikte dunwandige doorsnede</title>
			<g id="shape23-71" v:mID="23" v:groupContext="shape" transform="translate(-305.177,288.169) rotate(-90)">
				<title>Blad.23</title>
				<path d="M3.02 305.18 L3.38 305.18 L11.34 305.18" class="st9"/>
			</g>
			<g id="shape24-77" v:mID="24" v:groupContext="shape" transform="translate(305.177,293.838) rotate(90)">
				<title>Blad.24</title>
				<path d="M3.02 305.18 L3.38 305.18 L11.34 305.18" class="st9"/>
			</g>
		</g>
		<g id="group28-82" transform="translate(185.194,-170.306)" v:mID="28" v:groupContext="group">
			<title>Blad.28</title>
			<g id="shape26-83" v:mID="26" v:groupContext="shape" transform="translate(15.874,-5.68434E-14)">
				<title>Blad.26</title>
				<path d="M3.02 305.18 L3.38 305.18 L11.34 305.18" class="st9"/>
			</g>
			<g id="shape27-88" v:mID="27" v:groupContext="shape" transform="translate(11.3386,610.353) rotate(180)">
				<title>Blad.27</title>
				<path d="M3.02 305.18 L3.38 305.18 L11.34 305.18" class="st9"/>
			</g>
		</g>
		<g id="group29-93" transform="translate(256.06,-170.306)" v:mID="29" v:groupContext="group">
			<title>Blad.29</title>
			<g id="shape30-94" v:mID="30" v:groupContext="shape" transform="translate(15.874,-5.68434E-14)">
				<title>Blad.30</title>
				<path d="M3.02 305.18 L3.38 305.18 L11.34 305.18" class="st9"/>
			</g>
			<g id="shape31-99" v:mID="31" v:groupContext="shape" transform="translate(11.3386,610.353) rotate(180)">
				<title>Blad.31</title>
				<path d="M3.02 305.18 L3.38 305.18 L11.34 305.18" class="st9"/>
			</g>
		</g>
		<g id="group32-104" transform="translate(518.15,71.6584) rotate(90)" v:mID="32" v:groupContext="group">
			<title>Blad.32</title>
			<g id="shape33-105" v:mID="33" v:groupContext="shape" transform="translate(15.874,-5.68434E-14)">
				<title>Blad.33</title>
				<path d="M3.02 305.18 L3.38 305.18 L11.34 305.18" class="st9"/>
			</g>
			<g id="shape34-110" v:mID="34" v:groupContext="shape" transform="translate(11.3386,610.353) rotate(180)">
				<title>Blad.34</title>
				<path d="M3.02 305.18 L3.38 305.18 L11.34 305.18" class="st9"/>
			</g>
		</g>
		<g id="group35-115" transform="translate(95.3356,-78.1797)" v:mID="35" v:groupContext="group">
			<title>Maatlijn verticaal</title>
			<g id="group36-116" transform="translate(-296.673,305.177) rotate(-90)" v:mID="36" v:groupContext="group">
				<title>Maatlijn.31</title>
				<g id="shape37-117" v:mID="37" v:groupContext="shape" transform="translate(305.177,296.673) rotate(90)">
					<title>Blad.37</title>
					<path d="M0 305.18 L8.5 305.18" class="st11"/>
				</g>
				<g id="shape38-120" v:mID="38" v:groupContext="shape" transform="translate(446.909,296.673) rotate(90)">
					<title>Blad.38</title>
					<path d="M0 305.18 L8.5 305.18" class="st11"/>
				</g>
				<g id="shape39-123" v:mID="39" v:groupContext="shape" transform="translate(0,-4.25197)">
					<title>Blad.39</title>
					<path d="M3.74 305.18 L4.1 305.18 L137.63 305.18" class="st12"/>
				</g>
			</g>
			<g id="shape40-132" v:mID="40" v:groupContext="shape" transform="translate(4.25197,-56.6929)">
				<title>Blad.40</title>
				<desc>10 m</desc>
				<v:textBlock v:margins="rect(4,4,4,4)" v:tabSpace="42.5197"/>
				<v:textRect cx="16.2992" cy="291.003" width="32.6" height="28.3465"/>
				<rect x="0" y="276.83" width="32.5984" height="28.3465" class="st14"/>
				<text x="4.13" y="294.6" class="st15" v:langID="1043"><v:paragraph v:horizAlign="1"/><v:tabList/>10 m</text>			</g>
		</g>
		<g id="shape53-135" v:mID="53" v:groupContext="shape" transform="translate(57.0679,-248.258)">
			<title>Maatlijn.52</title>
			<desc>35 kN</desc>
			<v:textBlock v:margins="rect(4,4,4,4)" v:tabSpace="42.5197"/>
			<v:textRect cx="35.4331" cy="298.09" width="70.87" height="14.1732"/>
			<rect x="0" y="291.003" width="70.8661" height="14.1732" class="st14"/>
			<text x="20.6" y="301.69" class="st15" v:langID="1043"><v:paragraph v:horizAlign="1"/><v:tabList/>35 kN</text>		</g>
		<g id="shape54-138" v:mID="54" v:groupContext="shape" transform="translate(7.46161,-234.085)">
			<title>Maatlijn.54</title>
			<desc>10 kNm</desc>
			<v:textBlock v:margins="rect(4,4,4,4)" v:tabSpace="42.5197"/>
			<v:textRect cx="35.4331" cy="298.09" width="70.87" height="14.1732"/>
			<rect x="0" y="291.003" width="70.8661" height="14.1732" class="st14"/>
			<text x="15.93" y="301.69" class="st15" v:langID="1043"><v:paragraph v:horizAlign="1"/><v:tabList/>10 kNm</text>		</g>
		<g id="shape55-141" v:mID="55" v:groupContext="shape" transform="translate(0.375,-205.739)">
			<title>Maatlijn.55</title>
			<desc>3 kN</desc>
			<v:textBlock v:margins="rect(4,4,4,4)" v:tabSpace="42.5197"/>
			<v:textRect cx="35.4331" cy="298.09" width="70.87" height="14.1732"/>
			<rect x="0" y="291.003" width="70.8661" height="14.1732" class="st14"/>
			<text x="23.6" y="301.69" class="st15" v:langID="1043"><v:paragraph v:horizAlign="1"/><v:tabList/>3 kN</text>		</g>
		<g id="shape56-144" v:mID="56" v:groupContext="shape" transform="translate(57.0679,-78.1797)">
			<title>Punt A</title>
			<desc>A</desc>
			<v:textBlock v:margins="rect(4,4,4,4)" v:tabSpace="42.5197"/>
			<v:textRect cx="7.08661" cy="298.09" width="14.18" height="14.1732"/>
			<rect x="0" y="291.003" width="14.1732" height="14.1732" class="st16"/>
			<text x="4" y="301.69" class="st15" v:langID="1043"><v:paragraph v:horizAlign="1"/><v:tabList/>A</text>		</g>
		<g id="shape57-147" v:mID="57" v:groupContext="shape" transform="translate(57.0679,-205.739)">
			<title>Punt A.57</title>
			<desc>B</desc>
			<v:textBlock v:margins="rect(4,4,4,4)" v:tabSpace="42.5197"/>
			<v:textRect cx="7.08661" cy="298.09" width="14.18" height="14.1732"/>
			<rect x="0" y="291.003" width="14.1732" height="14.1732" class="st16"/>
			<text x="4" y="301.69" class="st15" v:langID="1043"><v:paragraph v:horizAlign="1"/><v:tabList/>B</text>		</g>
		<g id="shape58-150" v:mID="58" v:groupContext="shape" transform="translate(184.627,-64.0065)">
			<title>Punt A.58</title>
			<desc>C</desc>
			<v:textBlock v:margins="rect(4,4,4,4)" v:tabSpace="42.5197"/>
			<v:textRect cx="7.08661" cy="298.09" width="14.18" height="14.1732"/>
			<rect x="0" y="291.003" width="14.1732" height="14.1732" class="st16"/>
			<text x="4" y="301.69" class="st15" v:langID="1043"><v:paragraph v:horizAlign="1"/><v:tabList/>C</text>		</g>
		<g id="shape59-153" v:mID="59" v:groupContext="shape" transform="translate(269.666,-64.0065)">
			<title>Punt A.59</title>
			<desc>D</desc>
			<v:textBlock v:margins="rect(4,4,4,4)" v:tabSpace="42.5197"/>
			<v:textRect cx="7.08661" cy="298.09" width="14.18" height="14.1732"/>
			<rect x="0" y="291.003" width="14.1732" height="14.1732" class="st16"/>
			<text x="4" y="301.69" class="st15" v:langID="1043"><v:paragraph v:horizAlign="1"/><v:tabList/>D</text>		</g>
		<g id="shape60-156" v:mID="60" v:groupContext="shape" transform="translate(269.666,-219.345)">
			<title>Punt A.60</title>
			<desc>E</desc>
			<v:textBlock v:margins="rect(4,4,4,4)" v:tabSpace="42.5197"/>
			<v:textRect cx="7.08661" cy="298.09" width="14.18" height="14.1732"/>
			<rect x="0" y="291.003" width="14.1732" height="14.1732" class="st16"/>
			<text x="4" y="301.69" class="st15" v:langID="1043"><v:paragraph v:horizAlign="1"/><v:tabList/>E</text>		</g>
		<g id="shape61-159" v:mID="61" v:groupContext="shape" transform="translate(184.627,-219.912)">
			<title>Punt A.61</title>
			<desc>G</desc>
			<v:textBlock v:margins="rect(4,4,4,4)" v:tabSpace="42.5197"/>
			<v:textRect cx="7.08661" cy="298.09" width="14.18" height="14.1732"/>
			<rect x="0" y="291.003" width="14.1732" height="14.1732" class="st16"/>
			<text x="4" y="301.69" class="st15" v:langID="1043"><v:paragraph v:horizAlign="1"/><v:tabList/>G</text>		</g>
		<g id="shape62-162" v:mID="62" v:groupContext="shape" transform="translate(539.41,81.0128) rotate(90)">
			<title>Blad.62</title>
			<path d="M0 305.18 L8.5 305.18" class="st2"/>
		</g>
		<g id="shape63-165" v:mID="63" v:groupContext="shape" transform="translate(227.147,-226.999)">
			<title>Punt A.63</title>
			<desc>H</desc>
			<v:textBlock v:margins="rect(4,4,4,4)" v:tabSpace="42.5197"/>
			<v:textRect cx="7.08661" cy="298.09" width="14.18" height="14.1732"/>
			<rect x="0" y="291.003" width="14.1732" height="14.1732" class="st16"/>
			<text x="4" y="301.69" class="st15" v:langID="1043"><v:paragraph v:horizAlign="1"/><v:tabList/>H</text>		</g>
		<g id="shape64-168" v:mID="64" v:groupContext="shape" transform="translate(178.958,-127.786)">
			<title>Punt A.64</title>
			<desc>I</desc>
			<v:textBlock v:margins="rect(4,4,4,4)" v:tabSpace="42.5197"/>
			<v:textRect cx="7.08661" cy="298.09" width="14.18" height="14.1732"/>
			<rect x="0" y="291.003" width="14.1732" height="14.1732" class="st16"/>
			<text x="5.09" y="301.69" class="st15" v:langID="1043"><v:paragraph v:horizAlign="1"/><v:tabList/>I</text>		</g>
		<g id="shape65-171" v:mID="65" v:groupContext="shape" transform="translate(204.469,475.481) rotate(180)">
			<title>Blad.65</title>
			<path d="M0 305.18 L11.34 305.18" class="st2"/>
		</g>
		<g id="group66-174" transform="translate(293.761,-78.1797)" v:mID="66" v:groupContext="group">
			<title>Maatlijn verticaal.66</title>
			<g id="group67-175" transform="translate(-296.673,305.177) rotate(-90)" v:mID="67" v:groupContext="group">
				<title>Maatlijn.31</title>
				<g id="shape68-176" v:mID="68" v:groupContext="shape" transform="translate(305.177,296.673) rotate(90)">
					<title>Blad.68</title>
					<path d="M0 305.18 L8.5 305.18" class="st11"/>
				</g>
				<g id="shape69-179" v:mID="69" v:groupContext="shape" transform="translate(446.909,296.673) rotate(90)">
					<title>Blad.69</title>
					<path d="M0 305.18 L8.5 305.18" class="st11"/>
				</g>
				<g id="shape70-182" v:mID="70" v:groupContext="shape" transform="translate(0,-4.25197)">
					<title>Blad.70</title>
					<path d="M3.74 305.18 L4.1 305.18 L137.63 305.18" class="st12"/>
				</g>
			</g>
			<g id="shape71-189" v:mID="71" v:groupContext="shape" transform="translate(4.25197,-56.6929)">
				<title>Blad.71</title>
				<desc>500 mm</desc>
				<v:textBlock v:margins="rect(4,4,4,4)" v:tabSpace="42.5197"/>
				<v:textRect cx="24.8031" cy="291.003" width="49.61" height="28.3465"/>
				<rect x="0" y="276.83" width="49.6063" height="28.3465" class="st14"/>
				<text x="4.97" y="294.6" class="st15" v:langID="1043"><v:paragraph v:horizAlign="1"/><v:tabList/>500 mm</text>			</g>
		</g>
		<g id="group79-192" transform="translate(198.8,-35.66)" v:mID="79" v:groupContext="group">
			<title>Maatlijn.79</title>
			<g id="group80-193" transform="translate(0,-9.92126)" v:mID="80" v:groupContext="group">
				<title>Maatlijn.31</title>
				<g id="shape81-194" v:mID="81" v:groupContext="shape" transform="translate(305.177,296.673) rotate(90)">
					<title>Blad.81</title>
					<path d="M0 305.18 L8.5 305.18" class="st11"/>
				</g>
				<g id="shape82-197" v:mID="82" v:groupContext="shape" transform="translate(340.61,296.673) rotate(90)">
					<title>Blad.82</title>
					<path d="M0 305.18 L8.5 305.18" class="st11"/>
				</g>
				<g id="shape83-200" v:mID="83" v:groupContext="shape" transform="translate(0,-4.25197)">
					<title>Blad.83</title>
					<path d="M3.74 305.18 L4.1 305.18 L31.33 305.18" class="st12"/>
				</g>
			</g>
			<g id="shape84-207" v:mID="84" v:groupContext="shape" transform="translate(1.42821E-05,0)">
				<title>Blad.84</title>
				<desc>2 × 125 mm</desc>
				<v:textBlock v:margins="rect(4,4,4,4)" v:tabSpace="42.5197"/>
				<v:textRect cx="35.4331" cy="298.09" width="70.87" height="14.1732"/>
				<rect x="0" y="291.003" width="70.8661" height="14.1732" class="st14"/>
				<text x="6.21" y="301.69" class="st15" v:langID="1043"><v:paragraph v:horizAlign="1"/><v:tabList/>2 × 125 mm</text>			</g>
		</g>
		<g id="group85-210" transform="translate(234.233,-35.66)" v:mID="85" v:groupContext="group">
			<title>Maatlijn.85</title>
			<g id="group86-211" transform="translate(0,-9.92126)" v:mID="86" v:groupContext="group">
				<title>Maatlijn.31</title>
				<g id="shape87-212" v:mID="87" v:groupContext="shape" transform="translate(305.177,296.673) rotate(90)">
					<title>Blad.87</title>
					<path d="M0 305.18 L8.5 305.18" class="st11"/>
				</g>
				<g id="shape88-215" v:mID="88" v:groupContext="shape" transform="translate(340.61,296.673) rotate(90)">
					<title>Blad.88</title>
					<path d="M0 305.18 L8.5 305.18" class="st11"/>
				</g>
				<g id="shape89-218" v:mID="89" v:groupContext="shape" transform="translate(0,-4.25197)">
					<title>Blad.89</title>
					<path d="M3.74 305.18 L4.1 305.18 L31.33 305.18" class="st12"/>
				</g>
			</g>
			<g id="shape90-225" v:mID="90" v:groupContext="shape">
				<title>Blad.90</title>
				<rect x="0" y="291.003" width="35.4331" height="14.1732" class="st14"/>
			</g>
		</g>
		<g id="shape91-227" v:mID="91" v:groupContext="shape" transform="translate(142.107,-170.306)">
			<title>Maatlijn.91</title>
			<desc>10 mm</desc>
			<v:textBlock v:margins="rect(4,4,4,4)" v:tabSpace="42.5197"/>
			<v:textRect cx="35.4331" cy="298.09" width="70.87" height="14.1732"/>
			<rect x="0" y="291.003" width="70.8661" height="14.1732" class="st14"/>
			<text x="18.6" y="301.69" class="st15" v:langID="1043"><v:paragraph v:horizAlign="1"/><v:tabList/>10 mm</text>		</g>
		<g id="shape92-230" v:mID="92" v:groupContext="shape" transform="translate(212.973,-170.306)">
			<title>Maatlijn.92</title>
			<desc>10 mm</desc>
			<v:textBlock v:margins="rect(4,4,4,4)" v:tabSpace="42.5197"/>
			<v:textRect cx="35.4331" cy="298.09" width="70.87" height="14.1732"/>
			<rect x="0" y="291.003" width="70.8661" height="14.1732" class="st14"/>
			<text x="18.6" y="301.69" class="st15" v:langID="1043"><v:paragraph v:horizAlign="1"/><v:tabList/>10 mm</text>		</g>
		<g id="shape93-233" v:mID="93" v:groupContext="shape" transform="translate(177.54,-234.085)">
			<title>Maatlijn.93</title>
			<desc>10 mm</desc>
			<v:textBlock v:margins="rect(4,4,4,4)" v:tabSpace="42.5197"/>
			<v:textRect cx="35.4331" cy="298.09" width="70.87" height="14.1732"/>
			<rect x="0" y="291.003" width="70.8661" height="14.1732" class="st14"/>
			<text x="18.6" y="301.69" class="st15" v:langID="1043"><v:paragraph v:horizAlign="1"/><v:tabList/>10 mm</text>		</g>
		<g id="shape94-236" v:mID="94" v:groupContext="shape" transform="translate(191.714,-92.3529)">
			<title>Maatlijn.94</title>
			<desc>20 mm</desc>
			<v:textBlock v:margins="rect(4,4,4,4)" v:tabSpace="42.5197"/>
			<v:textRect cx="35.4331" cy="298.09" width="70.87" height="14.1732"/>
			<rect x="0" y="291.003" width="70.8661" height="14.1732" class="st14"/>
			<text x="18.6" y="301.69" class="st15" v:langID="1043"><v:paragraph v:horizAlign="1"/><v:tabList/>20 mm</text>		</g>
		<g id="group95-239" transform="translate(-163.069,226.997) rotate(-90)" v:mID="95" v:groupContext="group">
			<title>z-as</title>
			<g id="shape96-240" v:mID="96" v:groupContext="shape" transform="translate(305.177,276.83) rotate(90)">
				<title>Blad.96</title>
				<path d="M0 305.18 L22.62 305.18" class="st17"/>
			</g>
			<g id="shape97-247" v:mID="97" v:groupContext="shape" transform="translate(305.177,291.003) rotate(90)">
				<title>Blad.97</title>
				<desc>z</desc>
				<v:textBlock v:margins="rect(4,4,4,4)" v:tabSpace="42.5197"/>
				<v:textRect cx="7.08661" cy="298.09" width="14.18" height="14.1732"/>
				<rect x="0" y="291.003" width="14.1732" height="14.1732" class="st14"/>
				<text x="4.75" y="301.69" class="st19" v:langID="1043"><v:paragraph v:horizAlign="1"/><v:tabList/>z</text>			</g>
		</g>
		<g id="group98-250" transform="translate(-219.762,35.6584) rotate(-90)" v:mID="98" v:groupContext="group">
			<title>x-as</title>
			<g id="shape99-251" v:mID="99" v:groupContext="shape" transform="translate(-3.4709E-12,-14.1732)">
				<title>Blad.99</title>
				<path d="M0 305.18 L22.62 305.18" class="st17"/>
			</g>
			<g id="shape100-256" v:mID="100" v:groupContext="shape" transform="translate(319.35,291.003) rotate(90)">
				<title>Blad.100</title>
				<desc>x</desc>
				<v:textBlock v:margins="rect(4,4,4,4)" v:tabSpace="42.5197"/>
				<v:textRect cx="7.08661" cy="298.09" width="14.18" height="14.1732"/>
				<rect x="0" y="291.003" width="14.1732" height="14.1732" class="st14"/>
				<text x="4.42" y="301.69" class="st19" v:langID="1043"><v:paragraph v:horizAlign="1"/><v:tabList/>x</text>			</g>
		</g>
		<g id="group101-259" transform="translate(205.887,-106.526)" v:mID="101" v:groupContext="group">
			<title>y,z-assenstelsel</title>
			<g id="group102-260" transform="translate(28.3465,-1.13687E-13)" v:mID="102" v:groupContext="group">
				<title>z-as.13611</title>
				<g id="shape103-261" v:mID="103" v:groupContext="shape" transform="translate(305.177,276.83) rotate(90)">
					<title>Blad.103</title>
					<path d="M0 305.18 L22.62 305.18" class="st17"/>
				</g>
				<g id="shape104-266" v:mID="104" v:groupContext="shape">
					<title>Blad.104</title>
					<desc>z</desc>
					<v:textBlock v:margins="rect(4,4,4,4)" v:tabSpace="42.5197"/>
					<v:textRect cx="7.08661" cy="302.342" width="14.18" height="5.66929"/>
					<rect x="0" y="299.507" width="14.1732" height="5.66929" class="st14"/>
					<text x="4.75" y="305.94" class="st19" v:langID="1043"><v:paragraph v:horizAlign="1"/><v:tabList/>z</text>				</g>
			</g>
			<g id="group105-269" transform="translate(305.177,276.83) rotate(90)" v:mID="105" v:groupContext="group">
				<title>z-as.13614</title>
				<g id="shape106-270" v:mID="106" v:groupContext="shape" transform="translate(305.177,276.83) rotate(90)">
					<title>Blad.106</title>
					<path d="M0 305.18 L22.62 305.18" class="st17"/>
				</g>
				<g id="shape107-275" v:mID="107" v:groupContext="shape" transform="translate(-291.003,305.177) rotate(-90)">
					<title>Blad.107</title>
					<desc>y</desc>
					<v:textBlock v:margins="rect(4,4,4,4)" v:tabSpace="42.5197"/>
					<v:textRect cx="7.08661" cy="298.09" width="14.18" height="14.1732"/>
					<rect x="0" y="291.003" width="14.1732" height="14.1732" class="st14"/>
					<text x="4.42" y="301.69" class="st19" v:langID="1043"><v:paragraph v:horizAlign="1"/><v:tabList/>y</text>				</g>
			</g>
		</g>
		<g id="shape187-278" v:mID="187" v:groupContext="shape" transform="translate(186.753,-7.31356)">
			<title>Punt A.187</title>
			<desc>I at the height of the unkonw NC</desc>
			<v:textBlock v:margins="rect(4,4,4,4)" v:tabSpace="42.5197"/>
			<v:textRect cx="47.4803" cy="298.09" width="94.97" height="14.1732"/>
			<rect x="0" y="291.003" width="94.9606" height="14.1732" class="st16"/>
			<text x="7.83" y="294.49" class="st15" v:langID="1043"><v:paragraph v:horizAlign="1"/><v:tabList/>I at the height of <tspan
						x="9.48" dy="1.2em" class="st20">the unkonw NC</tspan></text>		</g>
	</g>
</svg>
