<?xml version="1.0" encoding="UTF-8" standalone="no"?>
<!DOCTYPE svg PUBLIC "-//W3C//DTD SVG 1.1//EN" "http://www.w3.org/Graphics/SVG/1.1/DTD/svg11.dtd">
<!-- Gegenereerd door Microsoft Visio, SVG Export Mline.svg Pagina-1 -->
<svg xmlns="http://www.w3.org/2000/svg" xmlns:xlink="http://www.w3.org/1999/xlink" xmlns:ev="http://www.w3.org/2001/xml-events"
		xmlns:v="http://schemas.microsoft.com/visio/2003/SVGExtensions/" width="3.74349in" height="2.48365in"
		viewBox="0 0 269.531 178.823" xml:space="preserve" color-interpolation-filters="sRGB" class="st6">
	<v:documentProperties v:langID="1043" v:metric="true" v:viewMarkup="false"/>

	<style type="text/css">
	<![CDATA[
		.st1 {stroke:#000000;stroke-linecap:round;stroke-linejoin:round;stroke-width:0.75}
		.st2 {stroke:#000000;stroke-linecap:round;stroke-linejoin:round;stroke-width:2.25}
		.st3 {fill:none;stroke:none;stroke-linecap:round;stroke-linejoin:round;stroke-width:0.24}
		.st4 {fill:#000000;font-family:Times New Roman;font-size:1.00001em}
		.st5 {stroke:#000000;stroke-linecap:round;stroke-linejoin:round;stroke-width:1.25}
		.st6 {fill:none;fill-rule:evenodd;font-size:12px;overflow:visible;stroke-linecap:square;stroke-miterlimit:3}
	]]>
	</style>

	<g v:mID="0" v:index="1" v:groupContext="foregroundPage">
		<title>Pagina-1</title>
		<v:pageProperties v:drawingScale="0.0393701" v:pageScale="0.0393701" v:drawingUnits="24" v:shadowOffsetX="8.50394"
				v:shadowOffsetY="-8.50394"/>
		<g id="shape140-1" v:mID="140" v:groupContext="shape" transform="translate(21.3798,-65.3168)">
			<title>Blad.140</title>
			<path d="M0 178.82 L226.77 178.82" class="st1"/>
		</g>
		<g id="shape143-4" v:mID="143" v:groupContext="shape" transform="translate(-103.908,6.11616) rotate(-49.3987)">
			<title>Blad.143</title>
			<path d="M0 165.01 C20.29 188.69 115.61 177.93 130.67 165.01" class="st2"/>
		</g>
		<g id="shape144-7" v:mID="144" v:groupContext="shape" transform="translate(253.914,-67.6481) rotate(60.9454)">
			<title>Blad.144</title>
			<path d="M0 168.73 C51.21 187.45 96.09 176.71 116.74 168.73" class="st2"/>
		</g>
		<g id="shape145-10" v:mID="145" v:groupContext="shape" transform="translate(158.759,-14.2474) rotate(-1.90915)">
			<title>Blad.145</title>
			<path d="M0 130.66 C13.35 187.74 56.39 202.02 85.09 130.66" class="st2"/>
		</g>
		<g id="shape150-13" v:mID="150" v:groupContext="shape" transform="translate(190.349,-41.2847) rotate(45.0013)">
			<title>Blad.150</title>
			<path d="M0 178.82 L2.83 178.82" class="st1"/>
		</g>
		<g id="shape152-16" v:mID="152" v:groupContext="shape" transform="translate(188.345,-43.2891) rotate(45.0013)">
			<title>Blad.152</title>
			<path d="M0 178.82 L2.83 178.82" class="st1"/>
		</g>
		<g id="shape153-19" v:mID="153" v:groupContext="shape" transform="translate(-62.5472,-41.2875) rotate(-45)">
			<title>Blad.153</title>
			<path d="M0 178.82 L2.83 178.82" class="st1"/>
		</g>
		<g id="shape154-22" v:mID="154" v:groupContext="shape" transform="translate(-64.5516,-39.2831) rotate(-45)">
			<title>Blad.154</title>
			<path d="M0 178.82 L2.83 178.82" class="st1"/>
		</g>
		<g id="shape155-25" v:mID="155" v:groupContext="shape" transform="translate(261.305,-41.3543) rotate(45.0013)">
			<title>Blad.155</title>
			<path d="M0 178.82 L2.83 178.82" class="st1"/>
		</g>
		<g id="shape156-28" v:mID="156" v:groupContext="shape" transform="translate(259.301,-43.3588) rotate(45.0013)">
			<title>Blad.156</title>
			<path d="M0 178.82 L2.83 178.82" class="st1"/>
		</g>
		<g id="shape157-31" v:mID="157" v:groupContext="shape" transform="translate(8.40891,-41.3571) rotate(-45)">
			<title>Blad.157</title>
			<path d="M0 178.82 L2.83 178.82" class="st1"/>
		</g>
		<g id="shape158-34" v:mID="158" v:groupContext="shape" transform="translate(6.40451,-39.3527) rotate(-45)">
			<title>Blad.158</title>
			<path d="M0 178.82 L2.83 178.82" class="st1"/>
		</g>
		<g id="shape159-37" v:mID="159" v:groupContext="shape" transform="translate(289.562,-10.1035) rotate(45.0013)">
			<title>Blad.159</title>
			<path d="M0 178.82 L2.83 178.82" class="st1"/>
		</g>
		<g id="shape160-40" v:mID="160" v:groupContext="shape" transform="translate(287.557,-12.1079) rotate(45.0013)">
			<title>Blad.160</title>
			<path d="M0 178.82 L2.83 178.82" class="st1"/>
		</g>
		<g id="shape161-43" v:mID="161" v:groupContext="shape" transform="translate(36.6654,-10.1063) rotate(-45)">
			<title>Blad.161</title>
			<path d="M0 178.82 L2.83 178.82" class="st1"/>
		</g>
		<g id="shape162-46" v:mID="162" v:groupContext="shape" transform="translate(34.661,-8.10186) rotate(-45)">
			<title>Blad.162</title>
			<path d="M0 178.82 L2.83 178.82" class="st1"/>
		</g>
		<g id="shape163-49" v:mID="163" v:groupContext="shape" transform="translate(332.081,36.6682) rotate(45.0013)">
			<title>Blad.163</title>
			<path d="M0 178.82 L2.83 178.82" class="st1"/>
		</g>
		<g id="shape164-52" v:mID="164" v:groupContext="shape" transform="translate(330.077,34.6638) rotate(45.0013)">
			<title>Blad.164</title>
			<path d="M0 178.82 L2.83 178.82" class="st1"/>
		</g>
		<g id="shape165-55" v:mID="165" v:groupContext="shape" transform="translate(79.1851,36.6654) rotate(-45)">
			<title>Blad.165</title>
			<path d="M0 178.82 L2.83 178.82" class="st1"/>
		</g>
		<g id="shape166-58" v:mID="166" v:groupContext="shape" transform="translate(77.1807,38.6698) rotate(-45)">
			<title>Blad.166</title>
			<path d="M0 178.82 L2.83 178.82" class="st1"/>
		</g>
		<g id="shape167-61" v:mID="167" v:groupContext="shape" transform="translate(174.451,-130.514)">
			<title>A.167</title>
			<desc>M-line (kNm)</desc>
			<v:textBlock v:margins="rect(4,4,4,4)" v:tabSpace="42.5197"/>
			<v:textRect cx="39.685" cy="171.736" width="79.38" height="14.1732"/>
			<rect x="0" y="164.649" width="79.3701" height="14.1732" class="st3"/>
			<text x="5.86" y="175.34" class="st4" v:langID="1043"><v:paragraph v:horizAlign="1"/><v:tabList/>M-line (kNm)</text>		</g>
		<g id="shape168-64" v:mID="168" v:groupContext="shape" transform="translate(32.7184,-95.0806)">
			<title>A.168</title>
			<desc>352</desc>
			<v:textBlock v:margins="rect(4,4,4,4)" v:tabSpace="42.5197"/>
			<v:textRect cx="21.2598" cy="171.736" width="42.52" height="14.1732"/>
			<rect x="0" y="164.649" width="42.5197" height="14.1732" class="st3"/>
			<text x="12.26" y="175.34" class="st4" v:langID="1043"><v:paragraph v:horizAlign="1"/><v:tabList/>352</text>		</g>
		<g id="shape169-67" v:mID="169" v:groupContext="shape" transform="translate(0.12,-65.3169)">
			<title>A.169</title>
			<desc>0</desc>
			<v:textBlock v:margins="rect(4,4,4,4)" v:tabSpace="42.5197"/>
			<v:textRect cx="21.2598" cy="171.736" width="42.52" height="14.1732"/>
			<rect x="0" y="164.649" width="42.5197" height="14.1732" class="st3"/>
			<text x="18.26" y="175.34" class="st4" v:langID="1043"><v:paragraph v:horizAlign="1"/><v:tabList/>0</text>		</g>
		<g id="shape170-70" v:mID="170" v:groupContext="shape" transform="translate(226.892,-65.3169)">
			<title>A.170</title>
			<desc>0</desc>
			<v:textBlock v:margins="rect(4,4,4,4)" v:tabSpace="42.5197"/>
			<v:textRect cx="21.2598" cy="171.736" width="42.52" height="14.1732"/>
			<rect x="0" y="164.649" width="42.5197" height="14.1732" class="st3"/>
			<text x="18.26" y="175.34" class="st4" v:langID="1043"><v:paragraph v:horizAlign="1"/><v:tabList/>0</text>		</g>
		<g id="shape171-73" v:mID="171" v:groupContext="shape" transform="translate(184.372,-0.12)">
			<title>A.171</title>
			<desc>355</desc>
			<v:textBlock v:margins="rect(4,4,4,4)" v:tabSpace="42.5197"/>
			<v:textRect cx="21.2598" cy="171.736" width="42.52" height="14.1732"/>
			<rect x="0" y="164.649" width="42.5197" height="14.1732" class="st3"/>
			<text x="12.26" y="175.34" class="st4" v:langID="1043"><v:paragraph v:horizAlign="1"/><v:tabList/>355</text>		</g>
		<g id="shape172-76" v:mID="172" v:groupContext="shape" transform="translate(130.514,-45.4743)">
			<title>A.172</title>
			<desc>7.83</desc>
			<v:textBlock v:margins="rect(4,4,4,4)" v:tabSpace="42.5197"/>
			<v:textRect cx="21.2598" cy="171.736" width="42.52" height="14.1732"/>
			<rect x="0" y="164.649" width="42.5197" height="14.1732" class="st3"/>
			<text x="10.76" y="175.34" class="st4" v:langID="1043"><v:paragraph v:horizAlign="1"/><v:tabList/>7.83</text>		</g>
		<g id="shape173-79" v:mID="173" v:groupContext="shape" transform="translate(129.096,-93.6633)">
			<title>A.173</title>
			<desc>543</desc>
			<v:textBlock v:margins="rect(4,4,4,4)" v:tabSpace="42.5197"/>
			<v:textRect cx="21.2598" cy="171.736" width="42.52" height="14.1732"/>
			<rect x="0" y="164.649" width="42.5197" height="14.1732" class="st3"/>
			<text x="12.26" y="175.34" class="st4" v:langID="1043"><v:paragraph v:horizAlign="1"/><v:tabList/>543</text>		</g>
		<g id="shape174-82" v:mID="174" v:groupContext="shape" transform="translate(85.1594,-164.529)">
			<title>A.174</title>
			<desc>1406</desc>
			<v:textBlock v:margins="rect(4,4,4,4)" v:tabSpace="42.5197"/>
			<v:textRect cx="21.2598" cy="171.736" width="42.52" height="14.1732"/>
			<rect x="0" y="164.649" width="42.5197" height="14.1732" class="st3"/>
			<text x="9.26" y="175.34" class="st4" v:langID="1043"><v:paragraph v:horizAlign="1"/><v:tabList/>1406</text>		</g>
		<g id="shape175-85" v:mID="175" v:groupContext="shape" transform="translate(78.0728,-79.4901)">
			<title>Momentvervormingsteken</title>
			<path d="M0 178.82 A14.1732 14.1732 0 0 1 14.17 164.65 A14.1732 14.1732 0 0 1 28.35 178.82" class="st5"/>
		</g>
		<g id="shape176-88" v:mID="176" v:groupContext="shape" transform="translate(219.805,306.502) rotate(180)">
			<title>Momentvervormingsteken.176</title>
			<path d="M0 178.82 A14.1732 14.1732 0 0 1 14.17 164.65 A14.1732 14.1732 0 0 1 28.35 178.82" class="st5"/>
		</g>
	</g>
</svg>
