<?xml version="1.0" encoding="UTF-8" standalone="no"?>
<!DOCTYPE svg PUBLIC "-//W3C//DTD SVG 1.1//EN" "http://www.w3.org/Graphics/SVG/1.1/DTD/svg11.dtd">
<!-- Gegenereerd door Microsoft Visio, SVG Export NC.svg Pagina-1 -->
<svg xmlns="http://www.w3.org/2000/svg" xmlns:xlink="http://www.w3.org/1999/xlink" xmlns:ev="http://www.w3.org/2001/xml-events"
		xmlns:v="http://schemas.microsoft.com/visio/2003/SVGExtensions/" width="5.48226in" height="3.80903in"
		viewBox="0 0 394.723 274.25" xml:space="preserve" color-interpolation-filters="sRGB" class="st10">
	<v:documentProperties v:langID="1043" v:metric="true" v:viewMarkup="false"/>

	<style type="text/css">
	<![CDATA[
		.st1 {stroke:#000000;stroke-linecap:round;stroke-linejoin:round;stroke-width:6}
		.st2 {stroke:#000000;stroke-linecap:round;stroke-linejoin:round;stroke-width:0.25}
		.st3 {marker-end:url(#mrkr4-26);marker-start:url(#mrkr4-24);stroke:#000000;stroke-linecap:round;stroke-linejoin:round;stroke-width:0.25}
		.st4 {fill:#000000;fill-opacity:1;stroke:#000000;stroke-opacity:1;stroke-width:0.1219512195122}
		.st5 {fill:none;stroke:none;stroke-linecap:round;stroke-linejoin:round;stroke-width:0.75}
		.st6 {fill:#000000;font-family:Times New Roman;font-size:1.00001em}
		.st7 {marker-start:url(#mrkr4-126);stroke:#000000;stroke-linecap:round;stroke-linejoin:round;stroke-width:0.25}
		.st8 {fill:#000000;fill-opacity:1;stroke:#000000;stroke-opacity:1;stroke-width:0.14792899408284}
		.st9 {stroke:#000000;stroke-linecap:round;stroke-linejoin:round;stroke-width:0.75}
		.st10 {fill:none;fill-rule:evenodd;font-size:12px;overflow:visible;stroke-linecap:square;stroke-miterlimit:3}
	]]>
	</style>

	<defs id="Markers">
		<g id="lend4">
			<path d="M 2 1 L 0 0 L 2 -1 L 2 1 " style="stroke:none"/>
		</g>
		<marker id="mrkr4-24" class="st4" v:arrowType="4" v:arrowSize="1" v:setback="14.96" refX="14.96" orient="auto"
				markerUnits="strokeWidth" overflow="visible">
			<use xlink:href="#lend4" transform="scale(8.2) "/>
		</marker>
		<marker id="mrkr4-26" class="st4" v:arrowType="4" v:arrowSize="1" v:setback="16.4" refX="-16.4" orient="auto"
				markerUnits="strokeWidth" overflow="visible">
			<use xlink:href="#lend4" transform="scale(-8.2,-8.2) "/>
		</marker>
		<marker id="mrkr4-126" class="st8" v:arrowType="4" v:arrowSize="0" v:setback="12.08" refX="12.08" orient="auto"
				markerUnits="strokeWidth" overflow="visible">
			<use xlink:href="#lend4" transform="scale(6.76) "/>
		</marker>
	</defs>
	<g v:mID="0" v:index="1" v:groupContext="foregroundPage">
		<title>Pagina-1</title>
		<v:pageProperties v:drawingScale="0.0393701" v:pageScale="0.0393701" v:drawingUnits="24" v:shadowOffsetX="8.50394"
				v:shadowOffsetY="-8.50394"/>
		<g id="shape53-1" v:mID="53" v:groupContext="shape" transform="translate(4.58394,-42.8947)">
			<title>Blad.53</title>
			<path d="M198.43 274.25 A56.6929 56.6929 -180 0 0 141.73 217.56 A56.6929 56.6929 -90 0 0 85.04 274.25 L0 160.86 L0 104.17
						 L283.46 104.17 L283.46 160.86 L0 160.86" class="st1"/>
		</g>
		<g id="shape54-4" v:mID="54" v:groupContext="shape" transform="translate(-16.3911,66.8054) rotate(-53.1301)">
			<title>Blad.54</title>
			<path d="M0 274.25 L141.73 274.25" class="st1"/>
		</g>
		<g id="shape55-7" v:mID="55" v:groupContext="shape" transform="translate(-127.934,61.2769) rotate(-90)">
			<title>Blad.55</title>
			<path d="M0 274.25 L56.69 274.25" class="st1"/>
		</g>
		<g id="group56-10" transform="translate(4.58394,-0.375)" v:mID="56" v:groupContext="group">
			<title>Maatlijn.56</title>
			<g id="group57-11" transform="translate(0,-9.92126)" v:mID="57" v:groupContext="group">
				<title>Maatlijn.31</title>
				<g id="shape58-12" v:mID="58" v:groupContext="shape" transform="translate(274.25,265.746) rotate(90)">
					<title>Blad.58</title>
					<path d="M0 274.25 L8.5 274.25" class="st2"/>
				</g>
				<g id="shape59-15" v:mID="59" v:groupContext="shape" transform="translate(359.29,265.746) rotate(90)">
					<title>Blad.59</title>
					<path d="M0 274.25 L8.5 274.25" class="st2"/>
				</g>
				<g id="shape60-18" v:mID="60" v:groupContext="shape" transform="translate(0,-4.25197)">
					<title>Blad.60</title>
					<path d="M3.74 274.25 L4.1 274.25 L80.94 274.25" class="st3"/>
				</g>
			</g>
			<g id="shape61-27" v:mID="61" v:groupContext="shape">
				<title>Blad.61</title>
				<desc>150 mm</desc>
				<v:textBlock v:margins="rect(4,4,4,4)" v:tabSpace="42.5197"/>
				<v:textRect cx="42.5197" cy="267.164" width="85.04" height="14.1732"/>
				<rect x="0" y="260.077" width="85.0394" height="14.1732" class="st5"/>
				<text x="22.69" y="270.76" class="st6" v:langID="1043"><v:paragraph v:horizAlign="1"/><v:tabList/>150 mm</text>			</g>
		</g>
		<g id="group68-30" transform="translate(203.009,-0.375)" v:mID="68" v:groupContext="group">
			<title>Maatlijn.68</title>
			<g id="group69-31" transform="translate(0,-9.92126)" v:mID="69" v:groupContext="group">
				<title>Maatlijn.31</title>
				<g id="shape70-32" v:mID="70" v:groupContext="shape" transform="translate(274.25,265.746) rotate(90)">
					<title>Blad.70</title>
					<path d="M0 274.25 L8.5 274.25" class="st2"/>
				</g>
				<g id="shape71-35" v:mID="71" v:groupContext="shape" transform="translate(359.29,265.746) rotate(90)">
					<title>Blad.71</title>
					<path d="M0 274.25 L8.5 274.25" class="st2"/>
				</g>
				<g id="shape72-38" v:mID="72" v:groupContext="shape" transform="translate(0,-4.25197)">
					<title>Blad.72</title>
					<path d="M3.74 274.25 L4.1 274.25 L80.94 274.25" class="st3"/>
				</g>
			</g>
			<g id="shape73-45" v:mID="73" v:groupContext="shape">
				<title>Blad.73</title>
				<desc>150 mm</desc>
				<v:textBlock v:margins="rect(4,4,4,4)" v:tabSpace="42.5197"/>
				<v:textRect cx="42.5197" cy="267.164" width="85.04" height="14.1732"/>
				<rect x="0" y="260.077" width="85.0394" height="14.1732" class="st5"/>
				<text x="22.69" y="270.76" class="st6" v:langID="1043"><v:paragraph v:horizAlign="1"/><v:tabList/>150 mm</text>			</g>
		</g>
		<g id="group74-48" transform="translate(312.143,-42.8947)" v:mID="74" v:groupContext="group">
			<title>Maatlijn verticaal.74</title>
			<g id="group75-49" transform="translate(-265.746,274.25) rotate(-90)" v:mID="75" v:groupContext="group">
				<title>Maatlijn.31</title>
				<g id="shape76-50" v:mID="76" v:groupContext="shape" transform="translate(274.25,265.746) rotate(90)">
					<title>Blad.76</title>
					<path d="M0 274.25 L8.5 274.25" class="st2"/>
				</g>
				<g id="shape77-53" v:mID="77" v:groupContext="shape" transform="translate(330.943,265.746) rotate(90)">
					<title>Blad.77</title>
					<path d="M0 274.25 L8.5 274.25" class="st2"/>
				</g>
				<g id="shape78-56" v:mID="78" v:groupContext="shape" transform="translate(0,-4.25197)">
					<title>Blad.78</title>
					<path d="M3.74 274.25 L4.1 274.25 L52.59 274.25" class="st3"/>
				</g>
			</g>
			<g id="shape79-63" v:mID="79" v:groupContext="shape" transform="translate(4.25197,-22.6772)">
				<title>Blad.79</title>
				<desc>100 mm</desc>
				<v:textBlock v:margins="rect(4,4,4,4)" v:tabSpace="42.5197"/>
				<v:textRect cx="28.3465" cy="268.581" width="56.7" height="11.3386"/>
				<rect x="0" y="262.912" width="56.6929" height="11.3386" class="st5"/>
				<text x="8.51" y="272.18" class="st6" v:langID="1043"><v:paragraph v:horizAlign="1"/><v:tabList/>100 mm</text>			</g>
		</g>
		<g id="group80-66" transform="translate(312.143,-99.5876)" v:mID="80" v:groupContext="group">
			<title>Maatlijn verticaal.80</title>
			<g id="group81-67" transform="translate(-265.746,274.25) rotate(-90)" v:mID="81" v:groupContext="group">
				<title>Maatlijn.31</title>
				<g id="shape82-68" v:mID="82" v:groupContext="shape" transform="translate(274.25,265.746) rotate(90)">
					<title>Blad.82</title>
					<path d="M0 274.25 L8.5 274.25" class="st2"/>
				</g>
				<g id="shape83-71" v:mID="83" v:groupContext="shape" transform="translate(324.565,265.746) rotate(90)">
					<title>Blad.83</title>
					<path d="M0 274.25 L8.5 274.25" class="st2"/>
				</g>
				<g id="shape84-74" v:mID="84" v:groupContext="shape" transform="translate(0,-4.25197)">
					<title>Blad.84</title>
					<path d="M3.74 274.25 L4.1 274.25 L46.21 274.25" class="st3"/>
				</g>
			</g>
			<g id="shape85-81" v:mID="85" v:groupContext="shape" transform="translate(4.25197,-20.126)">
				<title>Blad.85</title>
				<desc>91.56551 mm</desc>
				<v:textBlock v:margins="rect(4,4,4,4)" v:tabSpace="42.5197"/>
				<v:textRect cx="38.9764" cy="269.219" width="77.96" height="10.063"/>
				<rect x="0" y="264.187" width="77.9528" height="10.063" class="st5"/>
				<text x="5.64" y="272.82" class="st6" v:langID="1043"><v:paragraph v:horizAlign="1"/><v:tabList/>91.56551 mm</text>			</g>
		</g>
		<g id="group86-84" transform="translate(312.143,-156.281)" v:mID="86" v:groupContext="group">
			<title>Maatlijn verticaal.86</title>
			<g id="group87-85" transform="translate(-265.746,274.25) rotate(-90)" v:mID="87" v:groupContext="group">
				<title>Maatlijn.31</title>
				<g id="shape88-86" v:mID="88" v:groupContext="shape" transform="translate(274.25,265.746) rotate(90)">
					<title>Blad.88</title>
					<path d="M0 274.25 L8.5 274.25" class="st2"/>
				</g>
				<g id="shape89-89" v:mID="89" v:groupContext="shape" transform="translate(330.943,265.746) rotate(90)">
					<title>Blad.89</title>
					<path d="M0 274.25 L8.5 274.25" class="st2"/>
				</g>
				<g id="shape90-92" v:mID="90" v:groupContext="shape" transform="translate(0,-4.25197)">
					<title>Blad.90</title>
					<path d="M3.74 274.25 L4.1 274.25 L52.59 274.25" class="st3"/>
				</g>
			</g>
			<g id="shape91-99" v:mID="91" v:groupContext="shape" transform="translate(4.25197,-22.6772)">
				<title>Blad.91</title>
				<desc>100 mm</desc>
				<v:textBlock v:margins="rect(4,4,4,4)" v:tabSpace="42.5197"/>
				<v:textRect cx="28.3465" cy="268.581" width="56.7" height="11.3386"/>
				<rect x="0" y="262.912" width="56.6929" height="11.3386" class="st5"/>
				<text x="8.51" y="272.18" class="st6" v:langID="1043"><v:paragraph v:horizAlign="1"/><v:tabList/>100 mm</text>			</g>
		</g>
		<g id="group92-102" transform="translate(312.143,-212.973)" v:mID="92" v:groupContext="group">
			<title>Maatlijn verticaal.92</title>
			<g id="group93-103" transform="translate(-265.746,274.25) rotate(-90)" v:mID="93" v:groupContext="group">
				<title>Maatlijn.31</title>
				<g id="shape94-104" v:mID="94" v:groupContext="shape" transform="translate(274.25,265.746) rotate(90)">
					<title>Blad.94</title>
					<path d="M0 274.25 L8.5 274.25" class="st2"/>
				</g>
				<g id="shape95-107" v:mID="95" v:groupContext="shape" transform="translate(330.943,265.746) rotate(90)">
					<title>Blad.95</title>
					<path d="M0 274.25 L8.5 274.25" class="st2"/>
				</g>
				<g id="shape96-110" v:mID="96" v:groupContext="shape" transform="translate(0,-4.25197)">
					<title>Blad.96</title>
					<path d="M3.74 274.25 L4.1 274.25 L52.59 274.25" class="st3"/>
				</g>
			</g>
			<g id="shape97-117" v:mID="97" v:groupContext="shape" transform="translate(4.25197,-22.6772)">
				<title>Blad.97</title>
				<desc>100 mm</desc>
				<v:textBlock v:margins="rect(4,4,4,4)" v:tabSpace="42.5197"/>
				<v:textRect cx="28.3465" cy="268.581" width="56.7" height="11.3386"/>
				<rect x="0" y="262.912" width="56.6929" height="11.3386" class="st5"/>
				<text x="8.51" y="272.18" class="st6" v:langID="1043"><v:paragraph v:horizAlign="1"/><v:tabList/>100 mm</text>			</g>
		</g>
		<g id="group98-120" transform="translate(203.009,-198.8)" v:mID="98" v:groupContext="group">
			<title>Dikte dunwandige doorsnede.98</title>
			<g id="shape99-121" v:mID="99" v:groupContext="shape" transform="translate(-274.25,257.242) rotate(-90)">
				<title>Blad.99</title>
				<path d="M3.02 274.25 L3.38 274.25 L11.34 274.25" class="st7"/>
			</g>
			<g id="shape100-127" v:mID="100" v:groupContext="shape" transform="translate(274.25,262.912) rotate(90)">
				<title>Blad.100</title>
				<path d="M3.02 274.25 L3.38 274.25 L11.34 274.25" class="st7"/>
			</g>
		</g>
		<g id="shape101-132" v:mID="101" v:groupContext="shape" transform="translate(203.009,-220.06)">
			<title>Blad.101</title>
			<desc>10 mm</desc>
			<v:textBlock v:margins="rect(4,4,4,4)" v:tabSpace="42.5197"/>
			<v:textRect cx="21.2598" cy="267.164" width="42.52" height="14.1732"/>
			<rect x="0" y="260.077" width="42.5197" height="14.1732" class="st5"/>
			<text x="4.43" y="270.76" class="st6" v:langID="1043"><v:paragraph v:horizAlign="1"/><v:tabList/>10 mm</text>		</g>
		<g id="shape102-135" v:mID="102" v:groupContext="shape" transform="translate(590.645,117.97) rotate(90)">
			<title>Blad.102</title>
			<path d="M0 274.25 L6.47 274.25" class="st2"/>
		</g>
		<g id="shape103-138" v:mID="103" v:groupContext="shape" transform="translate(-47.608,-69.4858) rotate(-45)">
			<title>Blad.103</title>
			<path d="M0 274.25 L14.17 274.25" class="st9"/>
		</g>
		<g id="shape105-141" v:mID="105" v:groupContext="shape" transform="translate(340.24,-69.4858) rotate(45)">
			<title>Blad.105</title>
			<path d="M0 274.25 L14.17 274.25" class="st9"/>
		</g>
		<g id="shape106-144" v:mID="106" v:groupContext="shape" transform="translate(330.218,-79.5078) rotate(45)">
			<title>Blad.106</title>
			<path d="M0 274.25 L14.17 274.25" class="st9"/>
		</g>
		<g id="shape107-147" v:mID="107" v:groupContext="shape" transform="translate(-57.63,-59.4638) rotate(-45)">
			<title>Blad.107</title>
			<path d="M0 274.25 L14.17 274.25" class="st9"/>
		</g>
		<g id="shape108-150" v:mID="108" v:groupContext="shape" transform="translate(316.395,-147.777)">
			<title>Maatlijn verticaal.85</title>
			<desc>8.43449 mm</desc>
			<v:textBlock v:margins="rect(4,4,4,4)" v:tabSpace="42.5197"/>
			<v:textRect cx="35.4331" cy="269.219" width="70.87" height="10.063"/>
			<rect x="0" y="264.187" width="70.8662" height="10.063" class="st5"/>
			<text x="5.1" y="272.82" class="st6" v:langID="1043"><v:paragraph v:horizAlign="1"/><v:tabList/>8.43449 mm</text>		</g>
		<g id="shape109-153" v:mID="109" v:groupContext="shape" transform="translate(146.316,-135.729)">
			<title>Blad.109</title>
			<desc>NC</desc>
			<v:textBlock v:margins="rect(4,4,4,4)" v:tabSpace="42.5197"/>
			<v:textRect cx="21.2598" cy="267.164" width="42.52" height="14.1732"/>
			<rect x="0" y="260.077" width="42.5197" height="14.1732" class="st5"/>
			<text x="12.92" y="270.76" class="st6" v:langID="1043"><v:paragraph v:horizAlign="1"/><v:tabList/>NC</text>		</g>
		<g id="group116-156" transform="translate(89.6233,-0.375012)" v:mID="116" v:groupContext="group">
			<title>Maatlijn.116</title>
			<g id="group117-157" transform="translate(0,-9.92126)" v:mID="117" v:groupContext="group">
				<title>Maatlijn.31</title>
				<g id="shape118-158" v:mID="118" v:groupContext="shape" transform="translate(274.25,265.746) rotate(90)">
					<title>Blad.118</title>
					<path d="M0 274.25 L8.5 274.25" class="st2"/>
				</g>
				<g id="shape119-161" v:mID="119" v:groupContext="shape" transform="translate(330.943,265.746) rotate(90)">
					<title>Blad.119</title>
					<path d="M0 274.25 L8.5 274.25" class="st2"/>
				</g>
				<g id="shape120-164" v:mID="120" v:groupContext="shape" transform="translate(0,-4.25197)">
					<title>Blad.120</title>
					<path d="M3.74 274.25 L4.1 274.25 L52.59 274.25" class="st3"/>
				</g>
			</g>
			<g id="shape121-171" v:mID="121" v:groupContext="shape">
				<title>Blad.121</title>
				<desc>100 mm</desc>
				<v:textBlock v:margins="rect(4,4,4,4)" v:tabSpace="42.5197"/>
				<v:textRect cx="28.3465" cy="267.164" width="56.7" height="14.1732"/>
				<rect x="0" y="260.077" width="56.6929" height="14.1732" class="st5"/>
				<text x="8.51" y="270.76" class="st6" v:langID="1043"><v:paragraph v:horizAlign="1"/><v:tabList/>100 mm</text>			</g>
		</g>
		<g id="group122-174" transform="translate(146.316,-0.375012)" v:mID="122" v:groupContext="group">
			<title>Maatlijn.122</title>
			<g id="group123-175" transform="translate(0,-9.92126)" v:mID="123" v:groupContext="group">
				<title>Maatlijn.31</title>
				<g id="shape124-176" v:mID="124" v:groupContext="shape" transform="translate(274.25,265.746) rotate(90)">
					<title>Blad.124</title>
					<path d="M0 274.25 L8.5 274.25" class="st2"/>
				</g>
				<g id="shape125-179" v:mID="125" v:groupContext="shape" transform="translate(330.943,265.746) rotate(90)">
					<title>Blad.125</title>
					<path d="M0 274.25 L8.5 274.25" class="st2"/>
				</g>
				<g id="shape126-182" v:mID="126" v:groupContext="shape" transform="translate(0,-4.25197)">
					<title>Blad.126</title>
					<path d="M3.74 274.25 L4.1 274.25 L52.59 274.25" class="st3"/>
				</g>
			</g>
			<g id="shape127-189" v:mID="127" v:groupContext="shape">
				<title>Blad.127</title>
				<desc>100 mm</desc>
				<v:textBlock v:margins="rect(4,4,4,4)" v:tabSpace="42.5197"/>
				<v:textRect cx="28.3465" cy="267.164" width="56.7" height="14.1732"/>
				<rect x="0" y="260.077" width="56.6929" height="14.1732" class="st5"/>
				<text x="8.51" y="270.76" class="st6" v:langID="1043"><v:paragraph v:horizAlign="1"/><v:tabList/>100 mm</text>			</g>
		</g>
	</g>
</svg>
