<?xml version="1.0" encoding="UTF-8" standalone="no"?>
<!DOCTYPE svg PUBLIC "-//W3C//DTD SVG 1.1//EN" "http://www.w3.org/Graphics/SVG/1.1/DTD/svg11.dtd">
<!-- Gegenereerd door Microsoft Visio, SVG Export structure2.svg Pagina-1 -->
<svg xmlns="http://www.w3.org/2000/svg" xmlns:xlink="http://www.w3.org/1999/xlink" xmlns:ev="http://www.w3.org/2001/xml-events"
		xmlns:v="http://schemas.microsoft.com/visio/2003/SVGExtensions/" width="4.93168in" height="4.53238in"
		viewBox="0 0 355.081 326.331" xml:space="preserve" color-interpolation-filters="sRGB" class="st23">
	<v:documentProperties v:langID="1043" v:metric="true" v:viewMarkup="false"/>

	<style type="text/css">
	<![CDATA[
		.st1 {stroke:#000000;stroke-linecap:round;stroke-linejoin:round;stroke-width:1.2}
		.st2 {stroke:#000000;stroke-linecap:round;stroke-linejoin:round;stroke-width:0.75}
		.st3 {stroke:#000000;stroke-linecap:round;stroke-linejoin:round;stroke-width:2}
		.st4 {marker-start:url(#mrkr5-55);stroke:#800000;stroke-linecap:round;stroke-linejoin:round;stroke-width:2}
		.st5 {fill:#800000;fill-opacity:1;stroke:#800000;stroke-opacity:1;stroke-width:0.44247787610619}
		.st6 {fill:none;stroke:none;stroke-linecap:round;stroke-linejoin:round;stroke-width:0.24}
		.st7 {fill:#000000;font-family:Times New Roman;font-size:1.00001em}
		.st8 {marker-end:url(#mrkr5-68);stroke:#800000;stroke-linecap:round;stroke-linejoin:round;stroke-width:1.2}
		.st9 {fill:#800000;fill-opacity:1;stroke:#800000;stroke-opacity:1;stroke-width:0.45454545454546}
		.st10 {stroke:#800000;stroke-linecap:round;stroke-linejoin:round;stroke-width:1.2}
		.st11 {marker-start:url(#mrkr39-102);stroke:#800000;stroke-linecap:round;stroke-linejoin:round;stroke-width:2}
		.st12 {marker-end:url(#mrkr5-116);stroke:#000000;stroke-linecap:round;stroke-linejoin:round;stroke-width:0.75}
		.st13 {fill:#000000;fill-opacity:1;stroke:#000000;stroke-opacity:1;stroke-width:0.22935779816514}
		.st14 {fill:none;stroke:none;stroke-linecap:round;stroke-linejoin:round;stroke-width:0.75}
		.st15 {fill:#000000;font-family:Times New Roman;font-size:1.00001em;font-style:italic}
		.st16 {stroke:#000000;stroke-linecap:round;stroke-linejoin:round;stroke-width:6}
		.st17 {marker-start:url(#mrkr4-138);stroke:#000000;stroke-linecap:round;stroke-linejoin:round;stroke-width:0.25}
		.st18 {fill:#000000;fill-opacity:1;stroke:#000000;stroke-opacity:1;stroke-width:0.14792899408284}
		.st19 {stroke:#000000;stroke-linecap:round;stroke-linejoin:round;stroke-width:0.25}
		.st20 {marker-end:url(#mrkr4-193);marker-start:url(#mrkr4-191);stroke:#000000;stroke-linecap:round;stroke-linejoin:round;stroke-width:0.25}
		.st21 {fill:#000000;fill-opacity:1;stroke:#000000;stroke-opacity:1;stroke-width:0.12195121951219}
		.st22 {font-size:1em}
		.st23 {fill:none;fill-rule:evenodd;font-size:12px;overflow:visible;stroke-linecap:square;stroke-miterlimit:3}
	]]>
	</style>

	<defs id="Markers">
		<g id="lend5">
			<path d="M 2 1 L 0 0 L 1.98117 -0.993387 C 1.67173 -0.364515 1.67301 0.372641 1.98465 1.00043 " style="stroke:none"/>
		</g>
		<marker id="mrkr5-55" class="st5" v:arrowType="5" v:arrowSize="2" v:setback="3.775" refX="3.775" orient="auto"
				markerUnits="strokeWidth" overflow="visible">
			<use xlink:href="#lend5" transform="scale(2.26) "/>
		</marker>
		<marker id="mrkr5-68" class="st9" v:arrowType="5" v:arrowSize="0" v:setback="3.85" refX="-3.85" orient="auto"
				markerUnits="strokeWidth" overflow="visible">
			<use xlink:href="#lend5" transform="scale(-2.2,-2.2) "/>
		</marker>
		<g id="lend39">
			<path d="M 0 0 L 2 -1 L 2 1 L 0 0 M 2 0 L 4 -1 L 4 1 L 2 0 " style="stroke:none"/>
		</g>
		<marker id="mrkr39-102" class="st5" v:arrowType="39" v:arrowSize="2" v:setback="8.86" refX="8.86" orient="auto"
				markerUnits="strokeWidth" overflow="visible">
			<use xlink:href="#lend39" transform="scale(2.26) "/>
		</marker>
		<marker id="mrkr5-116" class="st13" v:arrowType="5" v:arrowSize="2" v:setback="7.63" refX="-7.63" orient="auto"
				markerUnits="strokeWidth" overflow="visible">
			<use xlink:href="#lend5" transform="scale(-4.36,-4.36) "/>
		</marker>
		<g id="lend4">
			<path d="M 2 1 L 0 0 L 2 -1 L 2 1 " style="stroke:none"/>
		</g>
		<marker id="mrkr4-138" class="st18" v:arrowType="4" v:arrowSize="0" v:setback="12.08" refX="12.08" orient="auto"
				markerUnits="strokeWidth" overflow="visible">
			<use xlink:href="#lend4" transform="scale(6.76) "/>
		</marker>
		<marker id="mrkr4-191" class="st21" v:arrowType="4" v:arrowSize="1" v:setback="14.96" refX="14.96" orient="auto"
				markerUnits="strokeWidth" overflow="visible">
			<use xlink:href="#lend4" transform="scale(8.2) "/>
		</marker>
		<marker id="mrkr4-193" class="st21" v:arrowType="4" v:arrowSize="1" v:setback="16.4" refX="-16.4" orient="auto"
				markerUnits="strokeWidth" overflow="visible">
			<use xlink:href="#lend4" transform="scale(-8.2,-8.2) "/>
		</marker>
	</defs>
	<g v:mID="0" v:index="1" v:groupContext="foregroundPage">
		<title>Pagina-1</title>
		<v:pageProperties v:drawingScale="0.0393701" v:pageScale="0.0393701" v:drawingUnits="24" v:shadowOffsetX="8.50394"
				v:shadowOffsetY="-8.50394"/>
		<g id="group177-1" transform="translate(295.178,340.624) rotate(180)" v:mID="177" v:groupContext="group">
			<title>Inklemming.177</title>
			<g id="shape178-2" v:mID="178" v:groupContext="shape" transform="translate(337.67,297.985) rotate(90)">
				<title>Blad.178</title>
				<path d="M0 326.33 L28.35 326.33" class="st1"/>
			</g>
			<g id="shape179-5" v:mID="179" v:groupContext="shape" transform="translate(239.255,67.2337) rotate(45)">
				<title>Blad.179</title>
				<path d="M0 326.33 L4.01 326.33" class="st2"/>
			</g>
			<g id="shape180-8" v:mID="180" v:groupContext="shape" transform="translate(236.42,67.2337) rotate(45)">
				<title>Blad.180</title>
				<path d="M0 326.33 L8.02 326.33" class="st2"/>
			</g>
			<g id="shape181-11" v:mID="181" v:groupContext="shape" transform="translate(233.586,67.2337) rotate(45)">
				<title>Blad.181</title>
				<path d="M0 326.33 L12.03 326.33" class="st2"/>
			</g>
			<g id="shape182-14" v:mID="182" v:groupContext="shape" transform="translate(230.751,67.2337) rotate(45)">
				<title>Blad.182</title>
				<path d="M0 326.33 L16.04 326.33" class="st2"/>
			</g>
			<g id="shape183-17" v:mID="183" v:groupContext="shape" transform="translate(230.751,70.0683) rotate(45)">
				<title>Blad.183</title>
				<path d="M0 326.33 L16.04 326.33" class="st2"/>
			</g>
			<g id="shape184-20" v:mID="184" v:groupContext="shape" transform="translate(230.751,72.903) rotate(45)">
				<title>Blad.184</title>
				<path d="M0 326.33 L16.04 326.33" class="st2"/>
			</g>
			<g id="shape185-23" v:mID="185" v:groupContext="shape" transform="translate(230.751,75.7376) rotate(45)">
				<title>Blad.185</title>
				<path d="M0 326.33 L16.04 326.33" class="st2"/>
			</g>
			<g id="shape186-26" v:mID="186" v:groupContext="shape" transform="translate(230.751,78.5723) rotate(45)">
				<title>Blad.186</title>
				<path d="M0 326.33 L16.04 326.33" class="st2"/>
			</g>
			<g id="shape187-29" v:mID="187" v:groupContext="shape" transform="translate(230.751,81.4069) rotate(45)">
				<title>Blad.187</title>
				<path d="M0 326.33 L16.04 326.33" class="st2"/>
			</g>
			<g id="shape188-32" v:mID="188" v:groupContext="shape" transform="translate(230.751,84.2416) rotate(45)">
				<title>Blad.188</title>
				<path d="M0 326.33 L16.04 326.33" class="st2"/>
			</g>
			<g id="shape189-35" v:mID="189" v:groupContext="shape" transform="translate(230.751,87.0762) rotate(45)">
				<title>Blad.189</title>
				<path d="M0 326.33 L12.03 326.33" class="st2"/>
			</g>
			<g id="shape190-38" v:mID="190" v:groupContext="shape" transform="translate(230.751,89.9109) rotate(45)">
				<title>Blad.190</title>
				<path d="M0 326.33 L8.02 326.33" class="st2"/>
			</g>
			<g id="shape191-41" v:mID="191" v:groupContext="shape" transform="translate(230.751,92.7455) rotate(45)">
				<title>Blad.191</title>
				<path d="M0 326.33 L4.01 326.33" class="st2"/>
			</g>
		</g>
		<g id="shape192-44" v:mID="192" v:groupContext="shape" transform="translate(170.454,-297.865)">
			<title>Ligger, 2 pt.192</title>
			<path d="M0 326.33 L113.39 326.33" class="st3"/>
		</g>
		<g id="shape193-47" v:mID="193" v:groupContext="shape" transform="translate(57.0679,-297.865)">
			<title>Ligger, 2 pt.193</title>
			<path d="M0 326.33 L113.39 326.33" class="st3"/>
		</g>
		<g id="shape194-50" v:mID="194" v:groupContext="shape" transform="translate(57.0679,354.797) rotate(180)">
			<title>Kracht.194</title>
			<path d="M7.55 326.33 L7.91 326.33 L28.35 326.33" class="st4"/>
		</g>
		<g id="shape195-56" v:mID="195" v:groupContext="shape" transform="translate(14.5482,-304.951)">
			<title>A.195</title>
			<desc>30 kN</desc>
			<v:textBlock v:margins="rect(4,4,4,4)" v:tabSpace="42.5197"/>
			<v:textRect cx="21.2598" cy="319.244" width="42.52" height="14.1732"/>
			<rect x="0" y="312.158" width="42.5197" height="14.1732" class="st6"/>
			<text x="6.43" y="322.84" class="st7" v:langID="1043"><v:paragraph v:horizAlign="1"/><v:tabList/>30 kN</text>		</g>
		<g id="group204-59" transform="translate(57.0679,-297.865)" v:mID="204" v:groupContext="group">
			<title>qz-last constant.204</title>
			<g id="shape205-60" v:mID="205" v:groupContext="shape" transform="translate(0,-14.1732)">
				<title>A.58</title>
				<desc>250 N/m</desc>
				<v:textBlock v:margins="rect(4,4,4,4)" v:tabSpace="42.5197"/>
				<v:textRect cx="113.386" cy="319.244" width="226.78" height="14.1732"/>
				<rect x="0" y="312.158" width="226.772" height="14.1732" class="st6"/>
				<text x="92.22" y="322.84" class="st7" v:langID="1043"><v:paragraph v:horizAlign="1"/><v:tabList/>250 N/m</text>			</g>
			<g id="shape206-63" v:mID="206" v:groupContext="shape" transform="translate(326.331,312.158) rotate(90)">
				<title>Kracht.5</title>
				<path d="M0 326.33 L9.55 326.33" class="st8"/>
			</g>
			<g id="shape207-69" v:mID="207" v:groupContext="shape" transform="translate(0,-14.1732)">
				<title>Blad.207</title>
				<path d="M0 326.33 L226.77 326.33" class="st10"/>
			</g>
			<g id="shape208-72" v:mID="208" v:groupContext="shape" transform="translate(371.685,312.158) rotate(90)">
				<title>Kracht.4</title>
				<path d="M0 326.33 L9.55 326.33" class="st8"/>
			</g>
			<g id="shape209-77" v:mID="209" v:groupContext="shape" transform="translate(417.04,312.158) rotate(90)">
				<title>Kracht.9</title>
				<path d="M0 326.33 L9.55 326.33" class="st8"/>
			</g>
			<g id="shape210-82" v:mID="210" v:groupContext="shape" transform="translate(553.103,312.158) rotate(90)">
				<title>Kracht.6</title>
				<path d="M0 326.33 L9.55 326.33" class="st8"/>
			</g>
			<g id="shape211-87" v:mID="211" v:groupContext="shape" transform="translate(507.748,312.158) rotate(90)">
				<title>Kracht.37</title>
				<path d="M0 326.33 L9.55 326.33" class="st8"/>
			</g>
			<g id="shape212-92" v:mID="212" v:groupContext="shape" transform="translate(462.394,312.158) rotate(90)">
				<title>Kracht.7</title>
				<path d="M0 326.33 L9.55 326.33" class="st8"/>
			</g>
		</g>
		<g id="shape213-97" v:mID="213" v:groupContext="shape" transform="translate(191.714,361.884) rotate(180)">
			<title>Wringend moment.213</title>
			<path d="M17.72 326.33 L18.08 326.33 L42.52 326.33" class="st11"/>
		</g>
		<g id="shape214-103" v:mID="214" v:groupContext="shape" transform="translate(496.785,25.6318) rotate(90)">
			<title>Blad.214</title>
			<path d="M0 326.33 L5.67 326.33" class="st2"/>
		</g>
		<g id="shape215-106" v:mID="215" v:groupContext="shape" transform="translate(142.107,-269.518)">
			<title>A.215</title>
			<desc>400 Nm</desc>
			<v:textBlock v:margins="rect(4,4,4,4)" v:tabSpace="42.5197"/>
			<v:textRect cx="28.3465" cy="319.244" width="56.7" height="14.1732"/>
			<rect x="0" y="312.158" width="56.6929" height="14.1732" class="st6"/>
			<text x="8.85" y="322.84" class="st7" v:langID="1043"><v:paragraph v:horizAlign="1"/><v:tabList/>400 Nm</text>		</g>
		<g id="group216-109" transform="translate(298.013,-283.691)" v:mID="216" v:groupContext="group">
			<title>x-as.216</title>
			<g id="shape217-110" v:mID="217" v:groupContext="shape" transform="translate(-3.70998E-12,-14.1732)">
				<title>Blad.217</title>
				<path d="M0 326.33 L22.62 326.33" class="st12"/>
			</g>
			<g id="shape218-117" v:mID="218" v:groupContext="shape" transform="translate(14.1732,0)">
				<title>Blad.218</title>
				<desc>x</desc>
				<v:textBlock v:margins="rect(4,4,4,4)" v:tabSpace="42.5197"/>
				<v:textRect cx="7.08661" cy="319.244" width="14.18" height="14.1732"/>
				<rect x="0" y="312.158" width="14.1732" height="14.1732" class="st14"/>
				<text x="4.42" y="322.84" class="st15" v:langID="1043"><v:paragraph v:horizAlign="1"/><v:tabList/>x</text>			</g>
		</g>
		<g id="group219-120" transform="translate(57.0679,-255.345)" v:mID="219" v:groupContext="group">
			<title>z-as.219</title>
			<g id="shape220-121" v:mID="220" v:groupContext="shape" transform="translate(326.331,297.985) rotate(90)">
				<title>Blad.220</title>
				<path d="M0 326.33 L22.62 326.33" class="st12"/>
			</g>
			<g id="shape221-126" v:mID="221" v:groupContext="shape">
				<title>Blad.221</title>
				<desc>z</desc>
				<v:textBlock v:margins="rect(4,4,4,4)" v:tabSpace="42.5197"/>
				<v:textRect cx="7.08661" cy="319.244" width="14.18" height="14.1732"/>
				<rect x="0" y="312.158" width="14.1732" height="14.1732" class="st14"/>
				<text x="4.75" y="322.84" class="st15" v:langID="1043"><v:paragraph v:horizAlign="1"/><v:tabList/>z</text>			</g>
		</g>
		<g id="shape222-129" v:mID="222" v:groupContext="shape" transform="translate(184.627,-71.0929)">
			<title>Blad.222</title>
			<path d="M113.39 241.29 L113.39 212.95 L0 212.95 L0 326.33 L113.39 326.33 L113.39 297.98" class="st16"/>
		</g>
		<g id="group223-132" transform="translate(212.973,-170.306)" v:mID="223" v:groupContext="group">
			<title>Dikte dunwandige doorsnede.223</title>
			<g id="shape224-133" v:mID="224" v:groupContext="shape" transform="translate(-326.331,309.323) rotate(-90)">
				<title>Blad.224</title>
				<path d="M3.02 326.33 L3.38 326.33 L11.34 326.33" class="st17"/>
			</g>
			<g id="shape225-139" v:mID="225" v:groupContext="shape" transform="translate(326.331,314.992) rotate(90)">
				<title>Blad.225</title>
				<path d="M3.02 326.33 L3.38 326.33 L11.34 326.33" class="st17"/>
			</g>
		</g>
		<g id="shape226-144" v:mID="226" v:groupContext="shape" transform="translate(212.973,-191.565)">
			<title>A.226</title>
			<desc>15 mm</desc>
			<v:textBlock v:margins="rect(4,4,4,4)" v:tabSpace="42.5197"/>
			<v:textRect cx="23.3858" cy="319.244" width="46.78" height="14.1732"/>
			<rect x="0" y="312.158" width="46.7716" height="14.1732" class="st6"/>
			<text x="6.55" y="322.84" class="st7" v:langID="1043"><v:paragraph v:horizAlign="1"/><v:tabList/>15 mm</text>		</g>
		<g id="group227-147" transform="translate(241.32,510.703) rotate(180)" v:mID="227" v:groupContext="group">
			<title>x-as.227</title>
			<g id="shape228-148" v:mID="228" v:groupContext="shape" transform="translate(-3.70998E-12,-14.1732)">
				<title>Blad.228</title>
				<path d="M0 326.33 L22.62 326.33" class="st12"/>
			</g>
			<g id="shape229-153" v:mID="229" v:groupContext="shape" transform="translate(28.3465,624.316) rotate(180)">
				<title>Blad.229</title>
				<desc>y</desc>
				<v:textBlock v:margins="rect(4,4,4,4)" v:tabSpace="42.5197"/>
				<v:textRect cx="7.08661" cy="319.244" width="14.18" height="14.1732"/>
				<rect x="0" y="312.158" width="14.1732" height="14.1732" class="st14"/>
				<text x="4.42" y="322.84" class="st15" v:langID="1043"><v:paragraph v:horizAlign="1"/><v:tabList/>y</text>			</g>
		</g>
		<g id="group230-156" transform="translate(242.322,-85.2662)" v:mID="230" v:groupContext="group">
			<title>z-as.230</title>
			<g id="shape231-157" v:mID="231" v:groupContext="shape" transform="translate(326.331,283.811) rotate(90)">
				<title>Blad.231</title>
				<path d="M0 326.33 L36.8 326.33" class="st12"/>
			</g>
			<g id="shape232-162" v:mID="232" v:groupContext="shape">
				<title>Blad.232</title>
				<desc>z</desc>
				<v:textBlock v:margins="rect(4,4,4,4)" v:tabSpace="42.5197"/>
				<v:textRect cx="7.08661" cy="315.701" width="14.18" height="21.2598"/>
				<rect x="0" y="305.071" width="14.1732" height="21.2598" class="st14"/>
				<text x="4.75" y="319.3" class="st15" v:langID="1043"><v:paragraph v:horizAlign="1"/><v:tabList/>z</text>			</g>
		</g>
		<g id="shape233-165" v:mID="233" v:groupContext="shape" transform="translate(-216.203,429.296) rotate(-135)">
			<title>Blad.233</title>
			<path d="M0 326.33 L2.83 326.33" class="st2"/>
		</g>
		<g id="shape234-168" v:mID="234" v:groupContext="shape" transform="translate(-214.198,431.3) rotate(-135)">
			<title>Blad.234</title>
			<path d="M0 326.33 L2.83 326.33" class="st2"/>
		</g>
		<g id="shape235-171" v:mID="235" v:groupContext="shape" transform="translate(-218.207,-30.2013) rotate(-45)">
			<title>Blad.235</title>
			<path d="M0 326.33 L2.83 326.33" class="st2"/>
		</g>
		<g id="shape236-174" v:mID="236" v:groupContext="shape" transform="translate(-216.203,-32.2057) rotate(-45)">
			<title>Blad.236</title>
			<path d="M0 326.33 L2.83 326.33" class="st2"/>
		</g>
		<g id="group237-177" transform="translate(307.934,-156.132)" v:mID="237" v:groupContext="group">
			<title>Maatlijn verticaal.237</title>
			<g id="group238-178" transform="translate(-317.827,326.331) rotate(-90)" v:mID="238" v:groupContext="group">
				<title>Maatlijn.31</title>
				<g id="shape239-179" v:mID="239" v:groupContext="shape" transform="translate(326.331,317.827) rotate(90)">
					<title>Blad.239</title>
					<path d="M0 326.33 L8.5 326.33" class="st19"/>
				</g>
				<g id="shape240-182" v:mID="240" v:groupContext="shape" transform="translate(354.677,317.827) rotate(90)">
					<title>Blad.240</title>
					<path d="M0 326.33 L8.5 326.33" class="st19"/>
				</g>
				<g id="shape241-185" v:mID="241" v:groupContext="shape" transform="translate(0,-4.25197)">
					<title>Blad.241</title>
					<path d="M3.74 326.33 L4.1 326.33 L24.25 326.33" class="st20"/>
				</g>
			</g>
			<g id="shape242-194" v:mID="242" v:groupContext="shape" transform="translate(4.25197,-11.3386)">
				<title>Blad.242</title>
				<desc>50 mm</desc>
				<v:textBlock v:margins="rect(4,4,4,4)" v:tabSpace="42.5197"/>
				<v:textRect cx="21.2598" cy="323.496" width="42.52" height="5.66929"/>
				<rect x="0" y="320.662" width="42.5197" height="5.66929" class="st14"/>
				<text x="4.43" y="327.1" class="st7" v:langID="1043"><v:paragraph v:horizAlign="1"/><v:tabList/>50 mm</text>			</g>
		</g>
		<g id="group243-197" transform="translate(307.934,-127.786)" v:mID="243" v:groupContext="group">
			<title>Maatlijn verticaal.243</title>
			<g id="group244-198" transform="translate(-317.827,326.331) rotate(-90)" v:mID="244" v:groupContext="group">
				<title>Maatlijn.31</title>
				<g id="shape245-199" v:mID="245" v:groupContext="shape" transform="translate(326.331,317.827) rotate(90)">
					<title>Blad.245</title>
					<path d="M0 326.33 L8.5 326.33" class="st19"/>
				</g>
				<g id="shape246-202" v:mID="246" v:groupContext="shape" transform="translate(354.677,317.827) rotate(90)">
					<title>Blad.246</title>
					<path d="M0 326.33 L8.5 326.33" class="st19"/>
				</g>
				<g id="shape247-205" v:mID="247" v:groupContext="shape" transform="translate(0,-4.25197)">
					<title>Blad.247</title>
					<path d="M3.74 326.33 L4.1 326.33 L24.25 326.33" class="st20"/>
				</g>
			</g>
			<g id="shape248-212" v:mID="248" v:groupContext="shape" transform="translate(4.25197,-11.3386)">
				<title>Blad.248</title>
				<desc>50 mm</desc>
				<v:textBlock v:margins="rect(4,4,4,4)" v:tabSpace="42.5197"/>
				<v:textRect cx="21.2598" cy="323.496" width="42.52" height="5.66929"/>
				<rect x="0" y="320.662" width="42.5197" height="5.66929" class="st14"/>
				<text x="4.43" y="327.1" class="st7" v:langID="1043"><v:paragraph v:horizAlign="1"/><v:tabList/>50 mm</text>			</g>
		</g>
		<g id="group249-215" transform="translate(307.934,-99.4394)" v:mID="249" v:groupContext="group">
			<title>Maatlijn verticaal.249</title>
			<g id="group250-216" transform="translate(-317.827,326.331) rotate(-90)" v:mID="250" v:groupContext="group">
				<title>Maatlijn.31</title>
				<g id="shape251-217" v:mID="251" v:groupContext="shape" transform="translate(326.331,317.827) rotate(90)">
					<title>Blad.251</title>
					<path d="M0 326.33 L8.5 326.33" class="st19"/>
				</g>
				<g id="shape252-220" v:mID="252" v:groupContext="shape" transform="translate(354.677,317.827) rotate(90)">
					<title>Blad.252</title>
					<path d="M0 326.33 L8.5 326.33" class="st19"/>
				</g>
				<g id="shape253-223" v:mID="253" v:groupContext="shape" transform="translate(0,-4.25197)">
					<title>Blad.253</title>
					<path d="M3.74 326.33 L4.1 326.33 L24.25 326.33" class="st20"/>
				</g>
			</g>
			<g id="shape254-230" v:mID="254" v:groupContext="shape" transform="translate(4.25197,-11.3386)">
				<title>Blad.254</title>
				<desc>50 mm</desc>
				<v:textBlock v:margins="rect(4,4,4,4)" v:tabSpace="42.5197"/>
				<v:textRect cx="21.2598" cy="323.496" width="42.52" height="5.66929"/>
				<rect x="0" y="320.662" width="42.5197" height="5.66929" class="st14"/>
				<text x="4.43" y="327.1" class="st7" v:langID="1043"><v:paragraph v:horizAlign="1"/><v:tabList/>50 mm</text>			</g>
		</g>
		<g id="group255-233" transform="translate(307.934,-71.0929)" v:mID="255" v:groupContext="group">
			<title>Maatlijn verticaal.255</title>
			<g id="group256-234" transform="translate(-317.827,326.331) rotate(-90)" v:mID="256" v:groupContext="group">
				<title>Maatlijn.31</title>
				<g id="shape257-235" v:mID="257" v:groupContext="shape" transform="translate(326.331,317.827) rotate(90)">
					<title>Blad.257</title>
					<path d="M0 326.33 L8.5 326.33" class="st19"/>
				</g>
				<g id="shape258-238" v:mID="258" v:groupContext="shape" transform="translate(354.677,317.827) rotate(90)">
					<title>Blad.258</title>
					<path d="M0 326.33 L8.5 326.33" class="st19"/>
				</g>
				<g id="shape259-241" v:mID="259" v:groupContext="shape" transform="translate(0,-4.25197)">
					<title>Blad.259</title>
					<path d="M3.74 326.33 L4.1 326.33 L24.25 326.33" class="st20"/>
				</g>
			</g>
			<g id="shape260-248" v:mID="260" v:groupContext="shape" transform="translate(4.25197,-11.3386)">
				<title>Blad.260</title>
				<desc>50 mm</desc>
				<v:textBlock v:margins="rect(4,4,4,4)" v:tabSpace="42.5197"/>
				<v:textRect cx="21.2598" cy="323.496" width="42.52" height="5.66929"/>
				<rect x="0" y="320.662" width="42.5197" height="5.66929" class="st14"/>
				<text x="4.43" y="327.1" class="st7" v:langID="1043"><v:paragraph v:horizAlign="1"/><v:tabList/>50 mm</text>			</g>
		</g>
		<g id="group261-251" transform="translate(241.32,-42.7465)" v:mID="261" v:groupContext="group">
			<title>Maatlijn.261</title>
			<g id="group262-252" transform="translate(0,-9.92126)" v:mID="262" v:groupContext="group">
				<title>Maatlijn.31</title>
				<g id="shape263-253" v:mID="263" v:groupContext="shape" transform="translate(326.331,317.827) rotate(90)">
					<title>Blad.263</title>
					<path d="M0 326.33 L8.5 326.33" class="st19"/>
				</g>
				<g id="shape264-256" v:mID="264" v:groupContext="shape" transform="translate(383.024,317.827) rotate(90)">
					<title>Blad.264</title>
					<path d="M0 326.33 L8.5 326.33" class="st19"/>
				</g>
				<g id="shape265-259" v:mID="265" v:groupContext="shape" transform="translate(0,-4.25197)">
					<title>Blad.265</title>
					<path d="M3.74 326.33 L4.1 326.33 L52.59 326.33" class="st20"/>
				</g>
			</g>
			<g id="shape266-266" v:mID="266" v:groupContext="shape">
				<title>Blad.266</title>
				<desc>100 mm</desc>
				<v:textBlock v:margins="rect(4,4,4,4)" v:tabSpace="42.5197"/>
				<v:textRect cx="28.3465" cy="319.244" width="56.7" height="14.1732"/>
				<rect x="0" y="312.158" width="56.6929" height="14.1732" class="st14"/>
				<text x="8.51" y="322.84" class="st7" v:langID="1043"><v:paragraph v:horizAlign="1"/><v:tabList/>100 mm</text>			</g>
		</g>
		<g id="group267-269" transform="translate(184.627,-42.7465)" v:mID="267" v:groupContext="group">
			<title>Maatlijn.267</title>
			<g id="group268-270" transform="translate(0,-9.92126)" v:mID="268" v:groupContext="group">
				<title>Maatlijn.31</title>
				<g id="shape269-271" v:mID="269" v:groupContext="shape" transform="translate(326.331,317.827) rotate(90)">
					<title>Blad.269</title>
					<path d="M0 326.33 L8.5 326.33" class="st19"/>
				</g>
				<g id="shape270-274" v:mID="270" v:groupContext="shape" transform="translate(383.024,317.827) rotate(90)">
					<title>Blad.270</title>
					<path d="M0 326.33 L8.5 326.33" class="st19"/>
				</g>
				<g id="shape271-277" v:mID="271" v:groupContext="shape" transform="translate(0,-4.25197)">
					<title>Blad.271</title>
					<path d="M3.74 326.33 L4.1 326.33 L52.59 326.33" class="st20"/>
				</g>
			</g>
			<g id="shape272-284" v:mID="272" v:groupContext="shape">
				<title>Blad.272</title>
				<desc>100 mm</desc>
				<v:textBlock v:margins="rect(4,4,4,4)" v:tabSpace="42.5197"/>
				<v:textRect cx="28.3465" cy="319.244" width="56.7" height="14.1732"/>
				<rect x="0" y="312.158" width="56.6929" height="14.1732" class="st14"/>
				<text x="8.51" y="322.84" class="st7" v:langID="1043"><v:paragraph v:horizAlign="1"/><v:tabList/>100 mm</text>			</g>
		</g>
		<g id="group273-287" transform="translate(14.5482,-42.7465)" v:mID="273" v:groupContext="group">
			<title>Maatlijn.273</title>
			<g id="group274-288" transform="translate(0,-9.92126)" v:mID="274" v:groupContext="group">
				<title>Maatlijn.31</title>
				<g id="shape275-289" v:mID="275" v:groupContext="shape" transform="translate(326.331,317.827) rotate(90)">
					<title>Blad.275</title>
					<path d="M0 326.33 L8.5 326.33" class="st19"/>
				</g>
				<g id="shape276-292" v:mID="276" v:groupContext="shape" transform="translate(496.41,317.827) rotate(90)">
					<title>Blad.276</title>
					<path d="M0 326.33 L8.5 326.33" class="st19"/>
				</g>
				<g id="shape277-295" v:mID="277" v:groupContext="shape" transform="translate(0,-4.25197)">
					<title>Blad.277</title>
					<path d="M3.74 326.33 L4.1 326.33 L165.98 326.33" class="st20"/>
				</g>
			</g>
			<g id="shape278-302" v:mID="278" v:groupContext="shape">
				<title>Blad.278</title>
				<desc>100 mm</desc>
				<v:textBlock v:margins="rect(4,4,4,4)" v:tabSpace="42.5197"/>
				<v:textRect cx="85.0394" cy="319.244" width="170.08" height="14.1732"/>
				<rect x="0" y="312.158" width="170.079" height="14.1732" class="st14"/>
				<text x="65.21" y="322.84" class="st7" v:langID="1043"><v:paragraph v:horizAlign="1"/><v:tabList/>100 mm</text>			</g>
		</g>
		<g id="shape279-305" v:mID="279" v:groupContext="shape" transform="translate(0.375,-127.786)">
			<title>x-as.279</title>
			<desc>SC</desc>
			<v:textBlock v:margins="rect(4,4,4,4)" v:tabSpace="42.5197"/>
			<v:textRect cx="14.1732" cy="319.244" width="28.35" height="14.1732"/>
			<rect x="0" y="312.158" width="28.3465" height="14.1732" class="st14"/>
			<text x="6.83" y="322.84" class="st7" v:langID="1043"><v:paragraph v:horizAlign="1"/><v:tabList/>SC</text>		</g>
		<g id="shape280-308" v:mID="280" v:groupContext="shape" transform="translate(0.374992,-0.226785)">
			<title>A.280</title>
			<desc>E = 210 GPa, G = 80 GPa Distributed load is applied at y = 0</desc>
			<v:textBlock v:margins="rect(4,4,4,4)" v:tabSpace="42.5197"/>
			<v:textRect cx="177.165" cy="312.158" width="354.34" height="28.3465"/>
			<rect x="0" y="297.985" width="354.331" height="28.3465" class="st6"/>
			<text x="114.73" y="308.56" class="st7" v:langID="1043"><v:paragraph v:horizAlign="1"/><v:tabList/>E = 210 GPa, G = 80 GPa<v:newlineChar/><tspan
						x="93.96" dy="1.2em" class="st22">Distributed load is applied at y = 0</tspan></text>		</g>
		<g id="group297-312" transform="translate(57.0679,-226.998)" v:mID="297" v:groupContext="group">
			<title>Maatlijn.297</title>
			<g id="group298-313" transform="translate(0,-9.92126)" v:mID="298" v:groupContext="group">
				<title>Maatlijn.31</title>
				<g id="shape299-314" v:mID="299" v:groupContext="shape" transform="translate(326.331,317.827) rotate(90)">
					<title>Blad.299</title>
					<path d="M0 326.33 L8.5 326.33" class="st19"/>
				</g>
				<g id="shape300-317" v:mID="300" v:groupContext="shape" transform="translate(439.717,317.827) rotate(90)">
					<title>Blad.300</title>
					<path d="M0 326.33 L8.5 326.33" class="st19"/>
				</g>
				<g id="shape301-320" v:mID="301" v:groupContext="shape" transform="translate(0,-4.25197)">
					<title>Blad.301</title>
					<path d="M3.74 326.33 L4.1 326.33 L109.29 326.33" class="st20"/>
				</g>
			</g>
			<g id="shape302-327" v:mID="302" v:groupContext="shape">
				<title>Blad.302</title>
				<desc>4 m</desc>
				<v:textBlock v:margins="rect(4,4,4,4)" v:tabSpace="42.5197"/>
				<v:textRect cx="56.6929" cy="319.244" width="113.39" height="14.1732"/>
				<rect x="0" y="312.158" width="113.386" height="14.1732" class="st14"/>
				<text x="47.53" y="322.84" class="st7" v:langID="1043"><v:paragraph v:horizAlign="1"/><v:tabList/>4 m</text>			</g>
		</g>
		<g id="group303-330" transform="translate(170.454,-226.998)" v:mID="303" v:groupContext="group">
			<title>Maatlijn.303</title>
			<g id="group304-331" transform="translate(0,-9.92126)" v:mID="304" v:groupContext="group">
				<title>Maatlijn.31</title>
				<g id="shape305-332" v:mID="305" v:groupContext="shape" transform="translate(326.331,317.827) rotate(90)">
					<title>Blad.305</title>
					<path d="M0 326.33 L8.5 326.33" class="st19"/>
				</g>
				<g id="shape306-335" v:mID="306" v:groupContext="shape" transform="translate(439.717,317.827) rotate(90)">
					<title>Blad.306</title>
					<path d="M0 326.33 L8.5 326.33" class="st19"/>
				</g>
				<g id="shape307-338" v:mID="307" v:groupContext="shape" transform="translate(0,-4.25197)">
					<title>Blad.307</title>
					<path d="M3.74 326.33 L4.1 326.33 L109.29 326.33" class="st20"/>
				</g>
			</g>
			<g id="shape308-345" v:mID="308" v:groupContext="shape">
				<title>Blad.308</title>
				<desc>4 m</desc>
				<v:textBlock v:margins="rect(4,4,4,4)" v:tabSpace="42.5197"/>
				<v:textRect cx="56.6929" cy="319.244" width="113.39" height="14.1732"/>
				<rect x="0" y="312.158" width="113.386" height="14.1732" class="st14"/>
				<text x="47.53" y="322.84" class="st7" v:langID="1043"><v:paragraph v:horizAlign="1"/><v:tabList/>4 m</text>			</g>
		</g>
		<g id="shape321-348" v:mID="321" v:groupContext="shape" transform="translate(57.0679,-283.691)">
			<title>Punt A.321</title>
			<desc>B</desc>
			<v:textBlock v:margins="rect(4,4,4,4)" v:tabSpace="42.5197"/>
			<v:textRect cx="7.08661" cy="319.244" width="14.18" height="14.1732"/>
			<rect x="0" y="312.158" width="14.1732" height="14.1732" class="st6"/>
			<text x="4" y="322.84" class="st7" v:langID="1043"><v:paragraph v:horizAlign="1"/><v:tabList/>B</text>		</g>
		<g id="shape322-351" v:mID="322" v:groupContext="shape" transform="translate(269.666,-283.691)">
			<title>Punt A.322</title>
			<desc>A</desc>
			<v:textBlock v:margins="rect(4,4,4,4)" v:tabSpace="42.5197"/>
			<v:textRect cx="7.08661" cy="319.244" width="14.18" height="14.1732"/>
			<rect x="0" y="312.158" width="14.1732" height="14.1732" class="st6"/>
			<text x="4" y="322.84" class="st7" v:langID="1043"><v:paragraph v:horizAlign="1"/><v:tabList/>A</text>		</g>
	</g>
</svg>
