<?xml version="1.0" encoding="UTF-8" standalone="no"?>
<!DOCTYPE svg PUBLIC "-//W3C//DTD SVG 1.1//EN" "http://www.w3.org/Graphics/SVG/1.1/DTD/svg11.dtd">
<!-- Gegenereerd door Microsoft Visio, SVG Export max.svg Pagina-1 -->
<svg xmlns="http://www.w3.org/2000/svg" xmlns:xlink="http://www.w3.org/1999/xlink" xmlns:ev="http://www.w3.org/2001/xml-events"
		xmlns:v="http://schemas.microsoft.com/visio/2003/SVGExtensions/" width="2.77841in" height="1.24998in"
		viewBox="0 0 200.046 89.9983" xml:space="preserve" color-interpolation-filters="sRGB" class="st12">
	<v:documentProperties v:langID="1043" v:metric="true" v:viewMarkup="false"/>

	<style type="text/css">
	<![CDATA[
		.st1 {stroke:#000000;stroke-linecap:round;stroke-linejoin:round;stroke-width:6}
		.st2 {stroke:#000000;stroke-linecap:round;stroke-linejoin:round;stroke-width:0.25}
		.st3 {marker-end:url(#mrkr4-20);marker-start:url(#mrkr4-18);stroke:#000000;stroke-linecap:round;stroke-linejoin:round;stroke-width:0.25}
		.st4 {fill:#000000;fill-opacity:1;stroke:#000000;stroke-opacity:1;stroke-width:0.1219512195122}
		.st5 {fill:none;stroke:none;stroke-linecap:round;stroke-linejoin:round;stroke-width:0.75}
		.st6 {fill:#000000;font-family:Times New Roman;font-size:1.00001em}
		.st7 {marker-end:url(#mrkr5-50);stroke:#000000;stroke-linecap:round;stroke-linejoin:round;stroke-width:0.75}
		.st8 {fill:#000000;fill-opacity:1;stroke:#000000;stroke-opacity:1;stroke-width:0.22935779816514}
		.st9 {fill:#000000;font-family:Times New Roman;font-size:1.00001em;font-style:italic}
		.st10 {stroke:#000000;stroke-linecap:round;stroke-linejoin:round;stroke-width:0.75}
		.st11 {stroke:#7f7f7f;stroke-linecap:round;stroke-linejoin:round;stroke-width:0.75}
		.st12 {fill:none;fill-rule:evenodd;font-size:12px;overflow:visible;stroke-linecap:square;stroke-miterlimit:3}
	]]>
	</style>

	<defs id="Markers">
		<g id="lend4">
			<path d="M 2 1 L 0 0 L 2 -1 L 2 1 " style="stroke:none"/>
		</g>
		<marker id="mrkr4-18" class="st4" v:arrowType="4" v:arrowSize="1" v:setback="14.96" refX="14.96" orient="auto"
				markerUnits="strokeWidth" overflow="visible">
			<use xlink:href="#lend4" transform="scale(8.2) "/>
		</marker>
		<marker id="mrkr4-20" class="st4" v:arrowType="4" v:arrowSize="1" v:setback="16.4" refX="-16.4" orient="auto"
				markerUnits="strokeWidth" overflow="visible">
			<use xlink:href="#lend4" transform="scale(-8.2,-8.2) "/>
		</marker>
		<g id="lend5">
			<path d="M 2 1 L 0 0 L 1.98117 -0.993387 C 1.67173 -0.364515 1.67301 0.372641 1.98465 1.00043 " style="stroke:none"/>
		</g>
		<marker id="mrkr5-50" class="st8" v:arrowType="5" v:arrowSize="2" v:setback="7.63" refX="-7.63" orient="auto"
				markerUnits="strokeWidth" overflow="visible">
			<use xlink:href="#lend5" transform="scale(-4.36,-4.36) "/>
		</marker>
	</defs>
	<g v:mID="0" v:index="1" v:groupContext="foregroundPage">
		<title>Pagina-1</title>
		<v:pageProperties v:drawingScale="0.0393701" v:pageScale="0.0393701" v:drawingUnits="24" v:shadowOffsetX="8.50394"
				v:shadowOffsetY="-8.50394"/>
		<g id="shape176-1" v:mID="176" v:groupContext="shape" transform="translate(5.21403,-28.7215)">
			<title>Blad.176</title>
			<path d="M0 90 L0 33.31 L119.06 33.31 L119.06 90" class="st1"/>
		</g>
		<g id="group177-4" transform="translate(5.21403,-0.375)" v:mID="177" v:groupContext="group">
			<title>Maatlijn.177</title>
			<g id="group178-5" transform="translate(0,-9.92126)" v:mID="178" v:groupContext="group">
				<title>Maatlijn.31</title>
				<g id="shape179-6" v:mID="179" v:groupContext="shape" transform="translate(89.9983,81.4944) rotate(90)">
					<title>Blad.179</title>
					<path d="M0 90 L8.5 90" class="st2"/>
				</g>
				<g id="shape180-9" v:mID="180" v:groupContext="shape" transform="translate(149.526,81.4944) rotate(90)">
					<title>Blad.180</title>
					<path d="M0 90 L8.5 90" class="st2"/>
				</g>
				<g id="shape181-12" v:mID="181" v:groupContext="shape" transform="translate(0,-4.25197)">
					<title>Blad.181</title>
					<path d="M3.74 90 L4.1 90 L55.43 90" class="st3"/>
				</g>
			</g>
			<g id="shape182-21" v:mID="182" v:groupContext="shape">
				<title>Blad.182</title>
				<desc>210 mm</desc>
				<v:textBlock v:margins="rect(4,4,4,4)" v:tabSpace="42.5197"/>
				<v:textRect cx="29.7638" cy="82.9117" width="59.53" height="14.1732"/>
				<rect x="0" y="75.8251" width="59.5276" height="14.1732" class="st5"/>
				<text x="9.93" y="86.51" class="st6" v:langID="1043"><v:paragraph v:horizAlign="1"/><v:tabList/>210 mm</text>			</g>
		</g>
		<g id="group183-24" transform="translate(131.356,-71.8648)" v:mID="183" v:groupContext="group">
			<title>Maatlijn verticaal.183</title>
			<g id="group184-25" transform="translate(-81.4944,89.9983) rotate(-90)" v:mID="184" v:groupContext="group">
				<title>Maatlijn.31</title>
				<g id="shape185-26" v:mID="185" v:groupContext="shape" transform="translate(89.9983,81.4944) rotate(90)">
					<title>Blad.185</title>
					<path d="M0 90 L8.5 90" class="st2"/>
				</g>
				<g id="shape186-29" v:mID="186" v:groupContext="shape" transform="translate(103.548,81.4944) rotate(90)">
					<title>Blad.186</title>
					<path d="M0 90 L8.5 90" class="st2"/>
				</g>
				<g id="shape187-32" v:mID="187" v:groupContext="shape" transform="translate(0,-4.25197)">
					<title>Blad.187</title>
					<path d="M3.74 90 L4.1 90 L9.45 90" class="st3"/>
				</g>
			</g>
			<g id="shape188-39" v:mID="188" v:groupContext="shape" transform="translate(11.0551,-5.41984)">
				<title>Blad.188</title>
				<desc>48.78 mm</desc>
				<v:textBlock v:margins="rect(4,4,4,4)" v:tabSpace="42.5197"/>
				<v:textRect cx="28.3465" cy="88.6434" width="56.7" height="2.70992"/>
				<rect x="0" y="87.2884" width="56.6929" height="2.70992" class="st5"/>
				<text x="4.01" y="92.24" class="st6" v:langID="1043"><v:paragraph v:horizAlign="1"/><v:tabList/>48.78 mm</text>			</g>
		</g>
		<g id="group189-42" transform="translate(36.3951,-43.4616)" v:mID="189" v:groupContext="group">
			<title>y,z-assenstelsel.189</title>
			<g id="group190-43" transform="translate(28.3465,-9.9476E-14)" v:mID="190" v:groupContext="group">
				<title>z-as.13611</title>
				<g id="shape191-44" v:mID="191" v:groupContext="shape" transform="translate(89.9983,61.6519) rotate(90)">
					<title>Blad.191</title>
					<path d="M0 90 L22.62 90" class="st7"/>
				</g>
				<g id="shape192-51" v:mID="192" v:groupContext="shape">
					<title>Blad.192</title>
					<desc>z</desc>
					<v:textBlock v:margins="rect(4,4,4,4)" v:tabSpace="42.5197"/>
					<v:textRect cx="7.08661" cy="87.1637" width="14.18" height="5.66929"/>
					<rect x="0" y="84.329" width="14.1732" height="5.66929" class="st5"/>
					<text x="4.75" y="90.76" class="st9" v:langID="1043"><v:paragraph v:horizAlign="1"/><v:tabList/>z</text>				</g>
			</g>
			<g id="group193-54" transform="translate(89.9983,61.6519) rotate(90)" v:mID="193" v:groupContext="group">
				<title>z-as.13614</title>
				<g id="shape194-55" v:mID="194" v:groupContext="shape" transform="translate(89.9983,61.6519) rotate(90)">
					<title>Blad.194</title>
					<path d="M0 90 L22.62 90" class="st7"/>
				</g>
				<g id="shape195-60" v:mID="195" v:groupContext="shape" transform="translate(-75.8251,89.9983) rotate(-90)">
					<title>Blad.195</title>
					<desc>y</desc>
					<v:textBlock v:margins="rect(4,4,4,4)" v:tabSpace="42.5197"/>
					<v:textRect cx="7.08661" cy="82.9117" width="14.18" height="14.1732"/>
					<rect x="0" y="75.8251" width="14.1732" height="14.1732" class="st5"/>
					<text x="4.42" y="86.51" class="st9" v:langID="1043"><v:paragraph v:horizAlign="1"/><v:tabList/>y</text>				</g>
			</g>
		</g>
		<g id="group196-63" transform="translate(64.7416,-0.375)" v:mID="196" v:groupContext="group">
			<title>Maatlijn.196</title>
			<g id="group197-64" transform="translate(0,-9.92126)" v:mID="197" v:groupContext="group">
				<title>Maatlijn.31</title>
				<g id="shape198-65" v:mID="198" v:groupContext="shape" transform="translate(89.9983,81.4944) rotate(90)">
					<title>Blad.198</title>
					<path d="M0 90 L8.5 90" class="st2"/>
				</g>
				<g id="shape199-68" v:mID="199" v:groupContext="shape" transform="translate(149.526,81.4944) rotate(90)">
					<title>Blad.199</title>
					<path d="M0 90 L8.5 90" class="st2"/>
				</g>
				<g id="shape200-71" v:mID="200" v:groupContext="shape" transform="translate(0,-4.25197)">
					<title>Blad.200</title>
					<path d="M3.74 90 L4.1 90 L55.43 90" class="st3"/>
				</g>
			</g>
			<g id="shape201-78" v:mID="201" v:groupContext="shape">
				<title>Blad.201</title>
				<desc>210 mm</desc>
				<v:textBlock v:margins="rect(4,4,4,4)" v:tabSpace="42.5197"/>
				<v:textRect cx="29.7638" cy="82.9117" width="59.53" height="14.1732"/>
				<rect x="0" y="75.8251" width="59.5276" height="14.1732" class="st5"/>
				<text x="9.93" y="86.51" class="st6" v:langID="1043"><v:paragraph v:horizAlign="1"/><v:tabList/>210 mm</text>			</g>
		</g>
		<g id="group202-81" transform="translate(131.356,-28.7215)" v:mID="202" v:groupContext="group">
			<title>Maatlijn verticaal.202</title>
			<g id="group203-82" transform="translate(-81.4944,89.9983) rotate(-90)" v:mID="203" v:groupContext="group">
				<title>Maatlijn.31</title>
				<g id="shape204-83" v:mID="204" v:groupContext="shape" transform="translate(89.9983,81.4944) rotate(90)">
					<title>Blad.204</title>
					<path d="M0 90 L8.5 90" class="st2"/>
				</g>
				<g id="shape205-86" v:mID="205" v:groupContext="shape" transform="translate(133.142,81.4944) rotate(90)">
					<title>Blad.205</title>
					<path d="M0 90 L8.5 90" class="st2"/>
				</g>
				<g id="shape206-89" v:mID="206" v:groupContext="shape" transform="translate(0,-4.25197)">
					<title>Blad.206</title>
					<path d="M3.74 90 L4.1 90 L39.04 90" class="st3"/>
				</g>
			</g>
			<g id="shape207-96" v:mID="207" v:groupContext="shape" transform="translate(4.25197,-17.2573)">
				<title>Blad.207</title>
				<desc>151.22 mm</desc>
				<v:textBlock v:margins="rect(4,4,4,4)" v:tabSpace="42.5197"/>
				<v:textRect cx="32.0315" cy="85.684" width="64.07" height="8.62866"/>
				<rect x="0" y="81.3696" width="64.063" height="8.62866" class="st5"/>
				<text x="4.7" y="89.28" class="st6" v:langID="1043"><v:paragraph v:horizAlign="1"/><v:tabList/>151.22 mm</text>			</g>
		</g>
		<g id="shape208-99" v:mID="208" v:groupContext="shape" transform="translate(1.10317,-45.5049) rotate(-45)">
			<title>Blad.208</title>
			<path d="M0 90 L2.83 90" class="st10"/>
		</g>
		<g id="shape209-102" v:mID="209" v:groupContext="shape" transform="translate(-0.901225,-43.5005) rotate(-45)">
			<title>Blad.209</title>
			<path d="M0 90 L2.83 90" class="st10"/>
		</g>
		<g id="shape210-105" v:mID="210" v:groupContext="shape" transform="translate(3.10757,83.7764) rotate(-135)">
			<title>Blad.210</title>
			<path d="M0 90 L2.83 90" class="st10"/>
		</g>
		<g id="shape211-108" v:mID="211" v:groupContext="shape" transform="translate(1.10317,81.772) rotate(-135)">
			<title>Blad.211</title>
			<path d="M0 90 L2.83 90" class="st10"/>
		</g>
		<g id="shape212-111" v:mID="212" v:groupContext="shape" transform="translate(63.6077,-65.5719)">
			<title>Maatlijn verticaal.212</title>
			<desc>NC</desc>
			<v:textBlock v:margins="rect(4,4,4,4)" v:tabSpace="42.5197"/>
			<v:textRect cx="14.1732" cy="82.9117" width="28.35" height="14.1732"/>
			<rect x="0" y="75.8251" width="28.3465" height="14.1732" class="st5"/>
			<text x="5.84" y="86.51" class="st6" v:langID="1043"><v:paragraph v:horizAlign="1"/><v:tabList/>NC</text>		</g>
		<g id="shape213-114" v:mID="213" v:groupContext="shape" transform="translate(57.7961,-45.4683) rotate(-45)">
			<title>Blad.213</title>
			<path d="M0 90 L2.83 90" class="st11"/>
		</g>
		<g id="shape214-117" v:mID="214" v:groupContext="shape" transform="translate(55.7917,-43.4639) rotate(-45)">
			<title>Blad.214</title>
			<path d="M0 90 L2.83 90" class="st11"/>
		</g>
		<g id="shape215-120" v:mID="215" v:groupContext="shape" transform="translate(59.8005,83.8129) rotate(-135)">
			<title>Blad.215</title>
			<path d="M0 90 L2.83 90" class="st11"/>
		</g>
		<g id="shape216-123" v:mID="216" v:groupContext="shape" transform="translate(57.7961,81.8085) rotate(-135)">
			<title>Blad.216</title>
			<path d="M0 90 L2.83 90" class="st11"/>
		</g>
		<g id="shape225-126" v:mID="225" v:groupContext="shape" transform="translate(-61.259,-45.4683) rotate(-45)">
			<title>Blad.225</title>
			<path d="M0 90 L2.83 90" class="st11"/>
		</g>
		<g id="shape226-129" v:mID="226" v:groupContext="shape" transform="translate(-63.2634,-43.4639) rotate(-45)">
			<title>Blad.226</title>
			<path d="M0 90 L2.83 90" class="st11"/>
		</g>
		<g id="shape227-132" v:mID="227" v:groupContext="shape" transform="translate(-59.2546,83.8129) rotate(-135)">
			<title>Blad.227</title>
			<path d="M0 90 L2.83 90" class="st11"/>
		</g>
		<g id="shape228-135" v:mID="228" v:groupContext="shape" transform="translate(-61.259,81.8085) rotate(-135)">
			<title>Blad.228</title>
			<path d="M0 90 L2.83 90" class="st11"/>
		</g>
	</g>
</svg>
