<?xml version="1.0" encoding="UTF-8" standalone="no"?>
<!DOCTYPE svg PUBLIC "-//W3C//DTD SVG 1.1//EN" "http://www.w3.org/Graphics/SVG/1.1/DTD/svg11.dtd">
<!-- Gegenereerd door Microsoft Visio, SVG Export structure.svg Pagina-1 -->
<svg xmlns="http://www.w3.org/2000/svg" xmlns:xlink="http://www.w3.org/1999/xlink" xmlns:ev="http://www.w3.org/2001/xml-events"
		xmlns:v="http://schemas.microsoft.com/visio/2003/SVGExtensions/" width="4.34113in" height="4.32098in"
		viewBox="0 0 312.561 311.111" xml:space="preserve" color-interpolation-filters="sRGB" class="st23">
	<v:documentProperties v:langID="1043" v:metric="true" v:viewMarkup="false"/>

	<style type="text/css">
	<![CDATA[
		.st1 {stroke:#000000;stroke-linecap:round;stroke-linejoin:round;stroke-width:2}
		.st2 {stroke:#800000;stroke-linecap:round;stroke-linejoin:round;stroke-width:1.2}
		.st3 {marker-end:url(#mrkr5-19);stroke:#800000;stroke-linecap:round;stroke-linejoin:round;stroke-width:1.2}
		.st4 {fill:#800000;fill-opacity:1;stroke:#800000;stroke-opacity:1;stroke-width:0.45454545454546}
		.st5 {stroke:#000000;stroke-linecap:round;stroke-linejoin:round;stroke-width:1.2}
		.st6 {stroke:#000000;stroke-linecap:round;stroke-linejoin:round;stroke-width:0.75}
		.st7 {marker-end:url(#mrkr5-91);stroke:#000000;stroke-linecap:round;stroke-linejoin:round;stroke-width:0.75}
		.st8 {fill:#000000;fill-opacity:1;stroke:#000000;stroke-opacity:1;stroke-width:0.22935779816514}
		.st9 {fill:none;stroke:none;stroke-linecap:round;stroke-linejoin:round;stroke-width:0.75}
		.st10 {fill:#000000;font-family:Times New Roman;font-size:1.00001em;font-style:italic}
		.st11 {stroke:#000000;stroke-linecap:round;stroke-linejoin:round;stroke-width:0.25}
		.st12 {marker-end:url(#mrkr4-120);marker-start:url(#mrkr4-118);stroke:#000000;stroke-linecap:round;stroke-linejoin:round;stroke-width:0.25}
		.st13 {fill:#000000;fill-opacity:1;stroke:#000000;stroke-opacity:1;stroke-width:0.1219512195122}
		.st14 {fill:#000000;font-family:Times New Roman;font-size:1.00001em}
		.st15 {stroke:#000000;stroke-linecap:round;stroke-linejoin:round;stroke-width:6}
		.st16 {marker-start:url(#mrkr4-175);stroke:#000000;stroke-linecap:round;stroke-linejoin:round;stroke-width:0.25}
		.st17 {fill:#000000;fill-opacity:1;stroke:#000000;stroke-opacity:1;stroke-width:0.14792899408284}
		.st18 {fill:none;stroke:none;stroke-linecap:round;stroke-linejoin:round;stroke-width:0.24}
		.st19 {font-size:1em;font-style:italic}
		.st20 {font-size:1em}
		.st21 {marker-start:url(#mrkr39-262);stroke:#800000;stroke-linecap:round;stroke-linejoin:round;stroke-width:2}
		.st22 {fill:#800000;fill-opacity:1;stroke:#800000;stroke-opacity:1;stroke-width:0.4424778761062}
		.st23 {fill:none;fill-rule:evenodd;font-size:12px;overflow:visible;stroke-linecap:square;stroke-miterlimit:3}
	]]>
	</style>

	<defs id="Markers">
		<g id="lend5">
			<path d="M 2 1 L 0 0 L 1.98117 -0.993387 C 1.67173 -0.364515 1.67301 0.372641 1.98465 1.00043 " style="stroke:none"/>
		</g>
		<marker id="mrkr5-19" class="st4" v:arrowType="5" v:arrowSize="0" v:setback="3.85" refX="-3.85" orient="auto"
				markerUnits="strokeWidth" overflow="visible">
			<use xlink:href="#lend5" transform="scale(-2.2,-2.2) "/>
		</marker>
		<marker id="mrkr5-91" class="st8" v:arrowType="5" v:arrowSize="2" v:setback="7.63" refX="-7.63" orient="auto"
				markerUnits="strokeWidth" overflow="visible">
			<use xlink:href="#lend5" transform="scale(-4.36,-4.36) "/>
		</marker>
		<g id="lend4">
			<path d="M 2 1 L 0 0 L 2 -1 L 2 1 " style="stroke:none"/>
		</g>
		<marker id="mrkr4-118" class="st13" v:arrowType="4" v:arrowSize="1" v:setback="14.96" refX="14.96" orient="auto"
				markerUnits="strokeWidth" overflow="visible">
			<use xlink:href="#lend4" transform="scale(8.2) "/>
		</marker>
		<marker id="mrkr4-120" class="st13" v:arrowType="4" v:arrowSize="1" v:setback="16.4" refX="-16.4" orient="auto"
				markerUnits="strokeWidth" overflow="visible">
			<use xlink:href="#lend4" transform="scale(-8.2,-8.2) "/>
		</marker>
		<marker id="mrkr4-175" class="st17" v:arrowType="4" v:arrowSize="0" v:setback="12.08" refX="12.08" orient="auto"
				markerUnits="strokeWidth" overflow="visible">
			<use xlink:href="#lend4" transform="scale(6.76) "/>
		</marker>
		<g id="lend39">
			<path d="M 0 0 L 2 -1 L 2 1 L 0 0 M 2 0 L 4 -1 L 4 1 L 2 0 " style="stroke:none"/>
		</g>
		<marker id="mrkr39-262" class="st22" v:arrowType="39" v:arrowSize="2" v:setback="8.86" refX="8.86" orient="auto"
				markerUnits="strokeWidth" overflow="visible">
			<use xlink:href="#lend39" transform="scale(2.26) "/>
		</marker>
	</defs>
	<g v:mID="0" v:index="1" v:groupContext="foregroundPage">
		<title>Pagina-1</title>
		<v:pageProperties v:drawingScale="0.0393701" v:pageScale="0.0393701" v:drawingUnits="24" v:shadowOffsetX="8.50394"
				v:shadowOffsetY="-8.50394"/>
		<g id="shape1-1" v:mID="1" v:groupContext="shape" transform="translate(14.5482,-254.043)">
			<title>Ligger, 2 pt</title>
			<path d="M0 311.11 L28.35 311.11" class="st1"/>
		</g>
		<g id="shape2-4" v:mID="2" v:groupContext="shape" transform="translate(42.8947,-254.043)">
			<title>Ligger, 2 pt.2</title>
			<path d="M0 311.11 L42.52 311.11" class="st1"/>
		</g>
		<g id="shape3-7" v:mID="3" v:groupContext="shape" transform="translate(85.4144,-254.043)">
			<title>Ligger, 2 pt.3</title>
			<path d="M0 311.11 L85.04 311.11" class="st1"/>
		</g>
		<g id="group4-10" transform="translate(14.5482,-254.043)" v:mID="4" v:groupContext="group">
			<title>q-last, linear</title>
			<g id="shape5-11" v:mID="5" v:groupContext="shape" transform="translate(-219.988,91.1222) rotate(-45)">
				<title>Blad.5</title>
				<path d="M0 311.11 L40.09 311.11" class="st2"/>
			</g>
			<g id="shape6-14" v:mID="6" v:groupContext="shape" transform="translate(329.287,292.935) rotate(90)">
				<title>Kracht.54</title>
				<path d="M0 311.11 L13.56 311.11" class="st3"/>
			</g>
			<g id="shape7-20" v:mID="7" v:groupContext="shape" transform="translate(339.457,282.764) rotate(90)">
				<title>Kracht.6</title>
				<path d="M0 311.11 L23.73 311.11" class="st3"/>
			</g>
			<g id="shape8-25" v:mID="8" v:groupContext="shape" transform="translate(334.372,287.849) rotate(90)">
				<title>Kracht.7</title>
				<path d="M0 311.11 L18.64 311.11" class="st3"/>
			</g>
			<g id="shape9-30" v:mID="9" v:groupContext="shape" transform="translate(324.202,298.02) rotate(90)">
				<title>Kracht.1</title>
				<path d="M0 311.11 L8.47 311.11" class="st3"/>
			</g>
		</g>
		<g id="shape18-35" v:mID="18" v:groupContext="shape" transform="translate(170.454,-254.043)">
			<title>Ligger, 2 pt.18</title>
			<path d="M0 311.11 L85.04 311.11" class="st1"/>
		</g>
		<g id="shape12-38" v:mID="12" v:groupContext="shape" transform="translate(41.4774,-254.043)">
			<title>Blad.12</title>
			<path d="M0 311.11 L127.56 268.59 L127.56 311.11" class="st2"/>
		</g>
		<g id="group21-41" transform="translate(266.832,354.005) rotate(180)" v:mID="21" v:groupContext="group">
			<title>Inklemming</title>
			<g id="shape22-42" v:mID="22" v:groupContext="shape" transform="translate(322.449,282.764) rotate(90)">
				<title>Blad.22</title>
				<path d="M0 311.11 L28.35 311.11" class="st5"/>
			</g>
			<g id="shape23-45" v:mID="23" v:groupContext="shape" transform="translate(228.492,62.7757) rotate(45)">
				<title>Blad.23</title>
				<path d="M0 311.11 L4.01 311.11" class="st6"/>
			</g>
			<g id="shape24-48" v:mID="24" v:groupContext="shape" transform="translate(225.658,62.7757) rotate(45)">
				<title>Blad.24</title>
				<path d="M0 311.11 L8.02 311.11" class="st6"/>
			</g>
			<g id="shape25-51" v:mID="25" v:groupContext="shape" transform="translate(222.823,62.7757) rotate(45)">
				<title>Blad.25</title>
				<path d="M0 311.11 L12.03 311.11" class="st6"/>
			</g>
			<g id="shape26-54" v:mID="26" v:groupContext="shape" transform="translate(219.988,62.7757) rotate(45)">
				<title>Blad.26</title>
				<path d="M0 311.11 L16.04 311.11" class="st6"/>
			</g>
			<g id="shape27-57" v:mID="27" v:groupContext="shape" transform="translate(219.988,65.6104) rotate(45)">
				<title>Blad.27</title>
				<path d="M0 311.11 L16.04 311.11" class="st6"/>
			</g>
			<g id="shape28-60" v:mID="28" v:groupContext="shape" transform="translate(219.988,68.445) rotate(45)">
				<title>Blad.28</title>
				<path d="M0 311.11 L16.04 311.11" class="st6"/>
			</g>
			<g id="shape29-63" v:mID="29" v:groupContext="shape" transform="translate(219.988,71.2797) rotate(45)">
				<title>Blad.29</title>
				<path d="M0 311.11 L16.04 311.11" class="st6"/>
			</g>
			<g id="shape30-66" v:mID="30" v:groupContext="shape" transform="translate(219.988,74.1143) rotate(45)">
				<title>Blad.30</title>
				<path d="M0 311.11 L16.04 311.11" class="st6"/>
			</g>
			<g id="shape31-69" v:mID="31" v:groupContext="shape" transform="translate(219.988,76.949) rotate(45)">
				<title>Blad.31</title>
				<path d="M0 311.11 L16.04 311.11" class="st6"/>
			</g>
			<g id="shape32-72" v:mID="32" v:groupContext="shape" transform="translate(219.988,79.7836) rotate(45)">
				<title>Blad.32</title>
				<path d="M0 311.11 L16.04 311.11" class="st6"/>
			</g>
			<g id="shape33-75" v:mID="33" v:groupContext="shape" transform="translate(219.988,82.6183) rotate(45)">
				<title>Blad.33</title>
				<path d="M0 311.11 L12.03 311.11" class="st6"/>
			</g>
			<g id="shape34-78" v:mID="34" v:groupContext="shape" transform="translate(219.988,85.4529) rotate(45)">
				<title>Blad.34</title>
				<path d="M0 311.11 L8.02 311.11" class="st6"/>
			</g>
			<g id="shape35-81" v:mID="35" v:groupContext="shape" transform="translate(219.988,88.2876) rotate(45)">
				<title>Blad.35</title>
				<path d="M0 311.11 L4.01 311.11" class="st6"/>
			</g>
		</g>
		<g id="group36-84" transform="translate(14.5482,-183.177)" v:mID="36" v:groupContext="group">
			<title>z-as</title>
			<g id="shape37-85" v:mID="37" v:groupContext="shape" transform="translate(311.111,282.764) rotate(90)">
				<title>Blad.37</title>
				<path d="M0 311.11 L22.62 311.11" class="st7"/>
			</g>
			<g id="shape38-92" v:mID="38" v:groupContext="shape">
				<title>Blad.38</title>
				<desc>z</desc>
				<v:textBlock v:margins="rect(4,4,4,4)" v:tabSpace="42.5197"/>
				<v:textRect cx="7.08661" cy="304.024" width="14.18" height="14.1732"/>
				<rect x="0" y="296.937" width="14.1732" height="14.1732" class="st9"/>
				<text x="4.75" y="307.62" class="st10" v:langID="1043"><v:paragraph v:horizAlign="1"/><v:tabList/>z</text>			</g>
		</g>
		<g id="group39-95" transform="translate(269.666,-239.87)" v:mID="39" v:groupContext="group">
			<title>x-as</title>
			<g id="shape40-96" v:mID="40" v:groupContext="shape" transform="translate(-3.53797E-12,-14.1732)">
				<title>Blad.40</title>
				<path d="M0 311.11 L22.62 311.11" class="st7"/>
			</g>
			<g id="shape41-101" v:mID="41" v:groupContext="shape" transform="translate(14.1732,0)">
				<title>Blad.41</title>
				<desc>x</desc>
				<v:textBlock v:margins="rect(4,4,4,4)" v:tabSpace="42.5197"/>
				<v:textRect cx="7.08661" cy="304.024" width="14.18" height="14.1732"/>
				<rect x="0" y="296.937" width="14.1732" height="14.1732" class="st9"/>
				<text x="4.42" y="307.62" class="st10" v:langID="1043"><v:paragraph v:horizAlign="1"/><v:tabList/>x</text>			</g>
		</g>
		<g id="group42-104" transform="translate(170.454,-211.523)" v:mID="42" v:groupContext="group">
			<title>Maatlijn</title>
			<g id="group43-105" transform="translate(0,-9.92126)" v:mID="43" v:groupContext="group">
				<title>Maatlijn.31</title>
				<g id="shape44-106" v:mID="44" v:groupContext="shape" transform="translate(311.111,302.607) rotate(90)">
					<title>Blad.44</title>
					<path d="M0 311.11 L8.5 311.11" class="st11"/>
				</g>
				<g id="shape45-109" v:mID="45" v:groupContext="shape" transform="translate(396.15,302.607) rotate(90)">
					<title>Blad.45</title>
					<path d="M0 311.11 L8.5 311.11" class="st11"/>
				</g>
				<g id="shape46-112" v:mID="46" v:groupContext="shape" transform="translate(0,-4.25197)">
					<title>Blad.46</title>
					<path d="M3.74 311.11 L4.1 311.11 L80.94 311.11" class="st12"/>
				</g>
			</g>
			<g id="shape47-121" v:mID="47" v:groupContext="shape">
				<title>Blad.47</title>
				<desc>3 m</desc>
				<v:textBlock v:margins="rect(4,4,4,4)" v:tabSpace="42.5197"/>
				<v:textRect cx="42.5197" cy="304.024" width="85.04" height="14.1732"/>
				<rect x="0" y="296.937" width="85.0394" height="14.1732" class="st9"/>
				<text x="33.35" y="307.62" class="st14" v:langID="1043"><v:paragraph v:horizAlign="1"/><v:tabList/>3 m</text>			</g>
		</g>
		<g id="group48-124" transform="translate(42.8947,-211.523)" v:mID="48" v:groupContext="group">
			<title>Maatlijn.48</title>
			<g id="group49-125" transform="translate(0,-9.92126)" v:mID="49" v:groupContext="group">
				<title>Maatlijn.31</title>
				<g id="shape50-126" v:mID="50" v:groupContext="shape" transform="translate(311.111,302.607) rotate(90)">
					<title>Blad.50</title>
					<path d="M0 311.11 L8.5 311.11" class="st11"/>
				</g>
				<g id="shape51-129" v:mID="51" v:groupContext="shape" transform="translate(438.67,302.607) rotate(90)">
					<title>Blad.51</title>
					<path d="M0 311.11 L8.5 311.11" class="st11"/>
				</g>
				<g id="shape52-132" v:mID="52" v:groupContext="shape" transform="translate(0,-4.25197)">
					<title>Blad.52</title>
					<path d="M3.74 311.11 L4.1 311.11 L123.46 311.11" class="st12"/>
				</g>
			</g>
			<g id="shape53-139" v:mID="53" v:groupContext="shape">
				<title>Blad.53</title>
				<desc>4.5 m</desc>
				<v:textBlock v:margins="rect(4,4,4,4)" v:tabSpace="42.5197"/>
				<v:textRect cx="63.7795" cy="304.024" width="127.56" height="14.1732"/>
				<rect x="0" y="296.937" width="127.559" height="14.1732" class="st9"/>
				<text x="50.11" y="307.62" class="st14" v:langID="1043"><v:paragraph v:horizAlign="1"/><v:tabList/>4.5 m</text>			</g>
		</g>
		<g id="group54-142" transform="translate(14.5482,-211.523)" v:mID="54" v:groupContext="group">
			<title>Maatlijn.54</title>
			<g id="group55-143" transform="translate(0,-9.92126)" v:mID="55" v:groupContext="group">
				<title>Maatlijn.31</title>
				<g id="shape56-144" v:mID="56" v:groupContext="shape" transform="translate(311.111,302.607) rotate(90)">
					<title>Blad.56</title>
					<path d="M0 311.11 L8.5 311.11" class="st11"/>
				</g>
				<g id="shape57-147" v:mID="57" v:groupContext="shape" transform="translate(339.457,302.607) rotate(90)">
					<title>Blad.57</title>
					<path d="M0 311.11 L8.5 311.11" class="st11"/>
				</g>
				<g id="shape58-150" v:mID="58" v:groupContext="shape" transform="translate(0,-4.25197)">
					<title>Blad.58</title>
					<path d="M3.74 311.11 L4.1 311.11 L24.25 311.11" class="st12"/>
				</g>
			</g>
			<g id="shape59-157" v:mID="59" v:groupContext="shape">
				<title>Blad.59</title>
				<desc>1 m</desc>
				<v:textBlock v:margins="rect(4,4,4,4)" v:tabSpace="42.5197"/>
				<v:textRect cx="14.1732" cy="304.024" width="28.35" height="14.1732"/>
				<rect x="0" y="296.937" width="28.3465" height="14.1732" class="st9"/>
				<text x="5.01" y="307.62" class="st14" v:langID="1043"><v:paragraph v:horizAlign="1"/><v:tabList/>1 m</text>			</g>
		</g>
		<g id="shape61-160" v:mID="61" v:groupContext="shape" transform="translate(13.8396,-282.389)">
			<title>Blad.61</title>
			<desc>9 kN/m</desc>
			<v:textBlock v:margins="rect(4,4,4,4)" v:tabSpace="42.5197"/>
			<v:textRect cx="28.3465" cy="304.024" width="56.7" height="14.1732"/>
			<rect x="0" y="296.937" width="56.6929" height="14.1732" class="st9"/>
			<text x="10.18" y="307.62" class="st14" v:langID="1043"><v:paragraph v:horizAlign="1"/><v:tabList/>9 kN/m</text>		</g>
		<g id="shape62-163" v:mID="62" v:groupContext="shape" transform="translate(142.107,-296.562)">
			<title>Blad.62</title>
			<desc>7 kNm/m</desc>
			<v:textBlock v:margins="rect(4,4,4,4)" v:tabSpace="42.5197"/>
			<v:textRect cx="28.3465" cy="304.024" width="56.7" height="14.1732"/>
			<rect x="0" y="296.937" width="56.6929" height="14.1732" class="st9"/>
			<text x="5.51" y="307.62" class="st14" v:langID="1043"><v:paragraph v:horizAlign="1"/><v:tabList/>7 kNm/m</text>		</g>
		<g id="shape63-166" v:mID="63" v:groupContext="shape" transform="translate(68.4065,-83.964)">
			<title>Blad.63</title>
			<path d="M0 311.11 L0 254.42 L119.06 254.42 L119.06 311.11" class="st15"/>
		</g>
		<g id="group64-169" transform="translate(106.674,-126.484)" v:mID="64" v:groupContext="group">
			<title>Dikte dunwandige doorsnede</title>
			<g id="shape65-170" v:mID="65" v:groupContext="shape" transform="translate(-311.111,294.103) rotate(-90)">
				<title>Blad.65</title>
				<path d="M3.02 311.11 L3.38 311.11 L11.34 311.11" class="st16"/>
			</g>
			<g id="shape66-176" v:mID="66" v:groupContext="shape" transform="translate(311.111,299.772) rotate(90)">
				<title>Blad.66</title>
				<path d="M3.02 311.11 L3.38 311.11 L11.34 311.11" class="st16"/>
			</g>
		</g>
		<g id="group67-181" transform="translate(68.4065,-55.6175)" v:mID="67" v:groupContext="group">
			<title>Maatlijn.67</title>
			<g id="group68-182" transform="translate(0,-9.92126)" v:mID="68" v:groupContext="group">
				<title>Maatlijn.31</title>
				<g id="shape69-183" v:mID="69" v:groupContext="shape" transform="translate(311.111,302.607) rotate(90)">
					<title>Blad.69</title>
					<path d="M0 311.11 L8.5 311.11" class="st11"/>
				</g>
				<g id="shape70-186" v:mID="70" v:groupContext="shape" transform="translate(370.638,302.607) rotate(90)">
					<title>Blad.70</title>
					<path d="M0 311.11 L8.5 311.11" class="st11"/>
				</g>
				<g id="shape71-189" v:mID="71" v:groupContext="shape" transform="translate(0,-4.25197)">
					<title>Blad.71</title>
					<path d="M3.74 311.11 L4.1 311.11 L55.43 311.11" class="st12"/>
				</g>
			</g>
			<g id="shape72-196" v:mID="72" v:groupContext="shape">
				<title>Blad.72</title>
				<desc>210 mm</desc>
				<v:textBlock v:margins="rect(4,4,4,4)" v:tabSpace="42.5197"/>
				<v:textRect cx="29.7638" cy="304.024" width="59.53" height="14.1732"/>
				<rect x="0" y="296.937" width="59.5276" height="14.1732" class="st9"/>
				<text x="9.93" y="307.62" class="st14" v:langID="1043"><v:paragraph v:horizAlign="1"/><v:tabList/>210 mm</text>			</g>
		</g>
		<g id="group73-199" transform="translate(194.548,-83.964)" v:mID="73" v:groupContext="group">
			<title>Maatlijn verticaal</title>
			<g id="group74-200" transform="translate(-302.607,311.111) rotate(-90)" v:mID="74" v:groupContext="group">
				<title>Maatlijn.31</title>
				<g id="shape75-201" v:mID="75" v:groupContext="shape" transform="translate(311.111,302.607) rotate(90)">
					<title>Blad.75</title>
					<path d="M0 311.11 L8.5 311.11" class="st11"/>
				</g>
				<g id="shape76-204" v:mID="76" v:groupContext="shape" transform="translate(367.804,302.607) rotate(90)">
					<title>Blad.76</title>
					<path d="M0 311.11 L8.5 311.11" class="st11"/>
				</g>
				<g id="shape77-207" v:mID="77" v:groupContext="shape" transform="translate(0,-4.25197)">
					<title>Blad.77</title>
					<path d="M3.74 311.11 L4.1 311.11 L52.59 311.11" class="st12"/>
				</g>
			</g>
			<g id="shape78-214" v:mID="78" v:groupContext="shape" transform="translate(4.25197,-22.6772)">
				<title>Blad.78</title>
				<desc>200 mm</desc>
				<v:textBlock v:margins="rect(4,4,4,4)" v:tabSpace="42.5197"/>
				<v:textRect cx="28.3465" cy="305.441" width="56.7" height="11.3386"/>
				<rect x="0" y="299.772" width="56.6929" height="11.3386" class="st9"/>
				<text x="8.51" y="309.04" class="st14" v:langID="1043"><v:paragraph v:horizAlign="1"/><v:tabList/>200 mm</text>			</g>
		</g>
		<g id="shape79-217" v:mID="79" v:groupContext="shape" transform="translate(99.5876,-149.161)">
			<title>Maatlijn verticaal.78</title>
			<desc>11 mm</desc>
			<v:textBlock v:margins="rect(4,4,4,4)" v:tabSpace="42.5197"/>
			<v:textRect cx="28.3465" cy="305.441" width="56.7" height="11.3386"/>
			<rect x="0" y="299.772" width="56.6929" height="11.3386" class="st9"/>
			<text x="11.51" y="309.04" class="st14" v:langID="1043"><v:paragraph v:horizAlign="1"/><v:tabList/>11 mm</text>		</g>
		<g id="shape80-220" v:mID="80" v:groupContext="shape" transform="translate(241.32,-254.043)">
			<title>Punt A</title>
			<desc>A</desc>
			<v:textBlock v:margins="rect(4,4,4,4)" v:tabSpace="42.5197"/>
			<v:textRect cx="7.08661" cy="304.024" width="14.18" height="14.1732"/>
			<rect x="0" y="296.937" width="14.1732" height="14.1732" class="st18"/>
			<text x="4" y="307.62" class="st14" v:langID="1043"><v:paragraph v:horizAlign="1"/><v:tabList/>A</text>		</g>
		<g id="shape81-223" v:mID="81" v:groupContext="shape" transform="translate(7.46161,-239.87)">
			<title>Punt A.81</title>
			<desc>B</desc>
			<v:textBlock v:margins="rect(4,4,4,4)" v:tabSpace="42.5197"/>
			<v:textRect cx="7.08661" cy="304.024" width="14.18" height="14.1732"/>
			<rect x="0" y="296.937" width="14.1732" height="14.1732" class="st18"/>
			<text x="4" y="307.62" class="st14" v:langID="1043"><v:paragraph v:horizAlign="1"/><v:tabList/>B</text>		</g>
		<g id="shape82-226" v:mID="82" v:groupContext="shape" transform="translate(35.8081,-239.87)">
			<title>Punt A.82</title>
			<desc>C</desc>
			<v:textBlock v:margins="rect(4,4,4,4)" v:tabSpace="42.5197"/>
			<v:textRect cx="7.08661" cy="304.024" width="14.18" height="14.1732"/>
			<rect x="0" y="296.937" width="14.1732" height="14.1732" class="st18"/>
			<text x="4" y="307.62" class="st14" v:langID="1043"><v:paragraph v:horizAlign="1"/><v:tabList/>C</text>		</g>
		<g id="shape83-229" v:mID="83" v:groupContext="shape" transform="translate(163.367,-239.87)">
			<title>Punt A.83</title>
			<desc>D</desc>
			<v:textBlock v:margins="rect(4,4,4,4)" v:tabSpace="42.5197"/>
			<v:textRect cx="7.08661" cy="304.024" width="14.18" height="14.1732"/>
			<rect x="0" y="296.937" width="14.1732" height="14.1732" class="st18"/>
			<text x="4" y="307.62" class="st14" v:langID="1043"><v:paragraph v:horizAlign="1"/><v:tabList/>D</text>		</g>
		<g id="shape84-232" v:mID="84" v:groupContext="shape" transform="translate(0.375,-15.9325)">
			<title>Maatlijn verticaal.84</title>
			<desc>Shear force centre at y = 0. Forces are applied in shear forc...</desc>
			<v:textBlock v:margins="rect(4,4,4,4)" v:tabSpace="42.5197"/>
			<v:textRect cx="155.906" cy="305.441" width="311.82" height="11.3386"/>
			<rect x="0" y="299.772" width="311.811" height="11.3386" class="st9"/>
			<text x="91.39" y="294.64" class="st14" v:langID="1043"><v:paragraph v:horizAlign="1"/><v:tabList/>Shear force centre at <tspan
						class="st19">y </tspan>= 0.<v:newlineChar/><tspan x="22.14" dy="1.2em" class="st20">Forces are applied in shear force en normal force centre<v:newlineChar/></tspan><tspan
						x="47.1" dy="1.2em" class="st20">Cross</tspan>-section can be modelled as thin-walled</text>		</g>
		<g id="group85-238" transform="translate(99.5876,-83.964)" v:mID="85" v:groupContext="group">
			<title>y,z-assenstelsel</title>
			<g id="group86-239" transform="translate(28.3465,-1.7053E-13)" v:mID="86" v:groupContext="group">
				<title>z-as.13611</title>
				<g id="shape87-240" v:mID="87" v:groupContext="shape" transform="translate(311.111,282.764) rotate(90)">
					<title>Blad.87</title>
					<path d="M0 311.11 L22.62 311.11" class="st7"/>
				</g>
				<g id="shape88-245" v:mID="88" v:groupContext="shape">
					<title>Blad.88</title>
					<desc>z</desc>
					<v:textBlock v:margins="rect(4,4,4,4)" v:tabSpace="42.5197"/>
					<v:textRect cx="7.08661" cy="308.276" width="14.18" height="5.66929"/>
					<rect x="0" y="305.441" width="14.1732" height="5.66929" class="st9"/>
					<text x="4.75" y="311.88" class="st10" v:langID="1043"><v:paragraph v:horizAlign="1"/><v:tabList/>z</text>				</g>
			</g>
			<g id="group89-248" transform="translate(311.111,282.764) rotate(90)" v:mID="89" v:groupContext="group">
				<title>z-as.13614</title>
				<g id="shape90-249" v:mID="90" v:groupContext="shape" transform="translate(311.111,282.764) rotate(90)">
					<title>Blad.90</title>
					<path d="M0 311.11 L22.62 311.11" class="st7"/>
				</g>
				<g id="shape91-254" v:mID="91" v:groupContext="shape" transform="translate(-296.937,311.111) rotate(-90)">
					<title>Blad.91</title>
					<desc>y</desc>
					<v:textBlock v:margins="rect(4,4,4,4)" v:tabSpace="42.5197"/>
					<v:textRect cx="7.08661" cy="304.024" width="14.18" height="14.1732"/>
					<rect x="0" y="296.937" width="14.1732" height="14.1732" class="st9"/>
					<text x="4.42" y="307.62" class="st10" v:langID="1043"><v:paragraph v:horizAlign="1"/><v:tabList/>y</text>				</g>
			</g>
		</g>
		<g id="shape98-257" v:mID="98" v:groupContext="shape" transform="translate(163.367,361.092) rotate(180)">
			<title>Kracht.1370</title>
			<path d="M17.72 311.11 L18.08 311.11 L28.35 311.11" class="st21"/>
		</g>
		<g id="shape99-263" v:mID="99" v:groupContext="shape" transform="translate(93.9183,361.092) rotate(180)">
			<title>Kracht.99</title>
			<path d="M17.72 311.11 L18.08 311.11 L22.68 311.11" class="st21"/>
		</g>
		<g id="shape100-268" v:mID="100" v:groupContext="shape" transform="translate(126.871,361.092) rotate(180)">
			<title>Kracht.100</title>
			<path d="M17.72 311.11 L18.08 311.11 L24.8 311.11" class="st21"/>
		</g>
		<g id="group101-273" transform="translate(127.934,-55.6175)" v:mID="101" v:groupContext="group">
			<title>Maatlijn.101</title>
			<g id="group102-274" transform="translate(0,-9.92126)" v:mID="102" v:groupContext="group">
				<title>Maatlijn.31</title>
				<g id="shape103-275" v:mID="103" v:groupContext="shape" transform="translate(311.111,302.607) rotate(90)">
					<title>Blad.103</title>
					<path d="M0 311.11 L8.5 311.11" class="st11"/>
				</g>
				<g id="shape104-278" v:mID="104" v:groupContext="shape" transform="translate(370.638,302.607) rotate(90)">
					<title>Blad.104</title>
					<path d="M0 311.11 L8.5 311.11" class="st11"/>
				</g>
				<g id="shape105-281" v:mID="105" v:groupContext="shape" transform="translate(0,-4.25197)">
					<title>Blad.105</title>
					<path d="M3.74 311.11 L4.1 311.11 L55.43 311.11" class="st12"/>
				</g>
			</g>
			<g id="shape106-288" v:mID="106" v:groupContext="shape">
				<title>Blad.106</title>
				<desc>210 mm</desc>
				<v:textBlock v:margins="rect(4,4,4,4)" v:tabSpace="42.5197"/>
				<v:textRect cx="29.7638" cy="304.024" width="59.53" height="14.1732"/>
				<rect x="0" y="296.937" width="59.5276" height="14.1732" class="st9"/>
				<text x="9.93" y="307.62" class="st14" v:langID="1043"><v:paragraph v:horizAlign="1"/><v:tabList/>210 mm</text>			</g>
		</g>
	</g>
</svg>
